<mxfile host="app.diagrams.net" agent="Mozilla/5.0 (X11; Linux x86_64) AppleWebKit/537.36 (KHTML, like Gecko) Chrome/131.0.0.0 Safari/537.36" version="25.0.3">
  <diagram name="Page-1" id="fcvnj7ntJTv2k6bfkcVL">
    <mxGraphModel dx="424" dy="246" grid="1" gridSize="10" guides="1" tooltips="1" connect="1" arrows="1" fold="1" page="1" pageScale="1" pageWidth="740" pageHeight="1360" math="0" shadow="0">
      <root>
        <mxCell id="0" />
        <mxCell id="1" parent="0" />
        <mxCell id="M4jZRAMzwR4Ym-2Xzj8O-1" value="" style="rounded=1;whiteSpace=wrap;html=1;rotation=0;fillColor=#CCCCCC;" vertex="1" parent="1">
          <mxGeometry x="600" y="60" width="100" height="40" as="geometry" />
        </mxCell>
        <mxCell id="M4jZRAMzwR4Ym-2Xzj8O-25" value="" style="rounded=1;whiteSpace=wrap;html=1;rotation=0;fillColor=#CCCCCC;" vertex="1" parent="1">
          <mxGeometry x="460" y="20" width="100" height="40" as="geometry" />
        </mxCell>
        <mxCell id="M4jZRAMzwR4Ym-2Xzj8O-26" value="" style="rounded=1;whiteSpace=wrap;html=1;rotation=0;fillColor=#CCCCCC;" vertex="1" parent="1">
          <mxGeometry x="460" y="100" width="100" height="40" as="geometry" />
        </mxCell>
        <mxCell id="M4jZRAMzwR4Ym-2Xzj8O-27" value="" style="rounded=1;whiteSpace=wrap;html=1;rotation=0;fillColor=#CCCCCC;" vertex="1" parent="1">
          <mxGeometry x="320" y="60" width="100" height="40" as="geometry" />
        </mxCell>
        <mxCell id="M4jZRAMzwR4Ym-2Xzj8O-29" value="" style="rounded=1;whiteSpace=wrap;html=1;rotation=0;fillColor=#CCCCCC;" vertex="1" parent="1">
          <mxGeometry x="180" y="20" width="100" height="40" as="geometry" />
        </mxCell>
        <mxCell id="M4jZRAMzwR4Ym-2Xzj8O-30" value="&lt;b&gt;&lt;font color=&quot;#ffffff&quot;&gt;Obfuscation&lt;/font&gt;&lt;/b&gt;" style="rounded=1;whiteSpace=wrap;html=1;rotation=0;fillColor=#CCCCCC;align=center;labelBorderColor=none;" vertex="1" parent="1">
          <mxGeometry x="40" y="60" width="100" height="40" as="geometry" />
        </mxCell>
        <mxCell id="M4jZRAMzwR4Ym-2Xzj8O-31" value="" style="endArrow=none;html=1;rounded=1;fontFamily=Helvetica;fontSize=12;fontColor=default;entryX=0;entryY=0.5;entryDx=0;entryDy=0;edgeStyle=orthogonalEdgeStyle;curved=1;" edge="1" parent="1" target="M4jZRAMzwR4Ym-2Xzj8O-29">
          <mxGeometry width="50" height="50" relative="1" as="geometry">
            <mxPoint x="140" y="80" as="sourcePoint" />
            <mxPoint x="170" y="50" as="targetPoint" />
          </mxGeometry>
        </mxCell>
        <mxCell id="M4jZRAMzwR4Ym-2Xzj8O-32" value="" style="endArrow=none;html=1;rounded=1;fontFamily=Helvetica;fontSize=12;fontColor=default;entryX=0;entryY=0.5;entryDx=0;entryDy=0;edgeStyle=orthogonalEdgeStyle;curved=1;" edge="1" parent="1" target="M4jZRAMzwR4Ym-2Xzj8O-28">
          <mxGeometry width="50" height="50" relative="1" as="geometry">
            <mxPoint x="140" y="80" as="sourcePoint" />
            <mxPoint x="190" y="30" as="targetPoint" />
          </mxGeometry>
        </mxCell>
        <mxCell id="M4jZRAMzwR4Ym-2Xzj8O-35" value="" style="endArrow=none;html=1;rounded=1;fontFamily=Helvetica;fontSize=12;fontColor=default;entryX=-0.007;entryY=0.636;entryDx=0;entryDy=0;entryPerimeter=0;edgeStyle=orthogonalEdgeStyle;curved=1;" edge="1" parent="1" target="M4jZRAMzwR4Ym-2Xzj8O-25">
          <mxGeometry width="50" height="50" relative="1" as="geometry">
            <mxPoint x="420" y="80" as="sourcePoint" />
            <mxPoint x="470" y="30" as="targetPoint" />
          </mxGeometry>
        </mxCell>
        <mxCell id="M4jZRAMzwR4Ym-2Xzj8O-36" value="" style="endArrow=none;html=1;rounded=1;fontFamily=Helvetica;fontSize=12;fontColor=default;exitX=1;exitY=0.5;exitDx=0;exitDy=0;entryX=0;entryY=0.5;entryDx=0;entryDy=0;edgeStyle=orthogonalEdgeStyle;curved=1;" edge="1" parent="1" source="M4jZRAMzwR4Ym-2Xzj8O-27" target="M4jZRAMzwR4Ym-2Xzj8O-26">
          <mxGeometry width="50" height="50" relative="1" as="geometry">
            <mxPoint x="480" y="190" as="sourcePoint" />
            <mxPoint x="530" y="140" as="targetPoint" />
          </mxGeometry>
        </mxCell>
        <mxCell id="M4jZRAMzwR4Ym-2Xzj8O-37" value="" style="endArrow=none;html=1;rounded=1;fontFamily=Helvetica;fontSize=12;fontColor=default;entryX=1;entryY=0.5;entryDx=0;entryDy=0;exitX=0;exitY=0.5;exitDx=0;exitDy=0;edgeStyle=orthogonalEdgeStyle;curved=1;" edge="1" parent="1" source="M4jZRAMzwR4Ym-2Xzj8O-1" target="M4jZRAMzwR4Ym-2Xzj8O-25">
          <mxGeometry width="50" height="50" relative="1" as="geometry">
            <mxPoint x="490" y="200" as="sourcePoint" />
            <mxPoint x="540" y="150" as="targetPoint" />
          </mxGeometry>
        </mxCell>
        <mxCell id="M4jZRAMzwR4Ym-2Xzj8O-38" value="" style="endArrow=none;html=1;rounded=1;fontFamily=Helvetica;fontSize=12;fontColor=default;entryX=1;entryY=0.5;entryDx=0;entryDy=0;exitX=0;exitY=0.5;exitDx=0;exitDy=0;edgeStyle=orthogonalEdgeStyle;curved=1;" edge="1" parent="1" source="M4jZRAMzwR4Ym-2Xzj8O-1" target="M4jZRAMzwR4Ym-2Xzj8O-26">
          <mxGeometry width="50" height="50" relative="1" as="geometry">
            <mxPoint x="500" y="210" as="sourcePoint" />
            <mxPoint x="550" y="160" as="targetPoint" />
          </mxGeometry>
        </mxCell>
        <mxCell id="M4jZRAMzwR4Ym-2Xzj8O-39" value="" style="rounded=1;whiteSpace=wrap;html=1;rotation=0;fillColor=#DEAD26;" vertex="1" parent="1">
          <mxGeometry x="40" y="320" width="100" height="40" as="geometry" />
        </mxCell>
        <mxCell id="M4jZRAMzwR4Ym-2Xzj8O-40" value="" style="rounded=1;whiteSpace=wrap;html=1;rotation=0;fillColor=#DEAD26;" vertex="1" parent="1">
          <mxGeometry x="180" y="380" width="100" height="40" as="geometry" />
        </mxCell>
        <mxCell id="M4jZRAMzwR4Ym-2Xzj8O-41" value="" style="rounded=1;whiteSpace=wrap;html=1;rotation=0;fillColor=#DEAD26;" vertex="1" parent="1">
          <mxGeometry x="180" y="260" width="100" height="40" as="geometry" />
        </mxCell>
        <mxCell id="M4jZRAMzwR4Ym-2Xzj8O-42" value="" style="rounded=1;whiteSpace=wrap;html=1;rotation=0;fillColor=#DEAD26;" vertex="1" parent="1">
          <mxGeometry x="460" y="420" width="100" height="40" as="geometry" />
        </mxCell>
        <mxCell id="M4jZRAMzwR4Ym-2Xzj8O-43" value="" style="rounded=1;whiteSpace=wrap;html=1;rotation=0;fillColor=#DEAD26;" vertex="1" parent="1">
          <mxGeometry x="320" y="420" width="100" height="40" as="geometry" />
        </mxCell>
        <mxCell id="M4jZRAMzwR4Ym-2Xzj8O-44" value="" style="rounded=1;whiteSpace=wrap;html=1;rotation=0;fillColor=#DEAD26;" vertex="1" parent="1">
          <mxGeometry x="320" y="340" width="100" height="40" as="geometry" />
        </mxCell>
        <mxCell id="M4jZRAMzwR4Ym-2Xzj8O-45" value="" style="rounded=1;whiteSpace=wrap;html=1;rotation=0;fillColor=#DEAD26;" vertex="1" parent="1">
          <mxGeometry x="320" y="260" width="100" height="40" as="geometry" />
        </mxCell>
        <mxCell id="M4jZRAMzwR4Ym-2Xzj8O-46" value="" style="rounded=1;whiteSpace=wrap;html=1;rotation=0;fillColor=#DEAD26;" vertex="1" parent="1">
          <mxGeometry x="320" y="180" width="100" height="40" as="geometry" />
        </mxCell>
        <mxCell id="M4jZRAMzwR4Ym-2Xzj8O-47" value="" style="endArrow=none;html=1;rounded=1;fontFamily=Helvetica;fontSize=12;fontColor=default;entryX=0;entryY=0.5;entryDx=0;entryDy=0;exitX=1;exitY=0.5;exitDx=0;exitDy=0;edgeStyle=orthogonalEdgeStyle;curved=1;" edge="1" parent="1" source="M4jZRAMzwR4Ym-2Xzj8O-41" target="M4jZRAMzwR4Ym-2Xzj8O-46">
          <mxGeometry width="50" height="50" relative="1" as="geometry">
            <mxPoint x="370" y="290" as="sourcePoint" />
            <mxPoint x="420" y="240" as="targetPoint" />
          </mxGeometry>
        </mxCell>
        <mxCell id="M4jZRAMzwR4Ym-2Xzj8O-48" value="" style="endArrow=none;html=1;rounded=1;fontFamily=Helvetica;fontSize=12;fontColor=default;entryX=0;entryY=0.5;entryDx=0;entryDy=0;exitX=1;exitY=0.5;exitDx=0;exitDy=0;edgeStyle=orthogonalEdgeStyle;curved=1;" edge="1" parent="1" source="M4jZRAMzwR4Ym-2Xzj8O-41" target="M4jZRAMzwR4Ym-2Xzj8O-45">
          <mxGeometry width="50" height="50" relative="1" as="geometry">
            <mxPoint x="380" y="300" as="sourcePoint" />
            <mxPoint x="430" y="250" as="targetPoint" />
          </mxGeometry>
        </mxCell>
        <mxCell id="M4jZRAMzwR4Ym-2Xzj8O-49" value="" style="endArrow=none;html=1;rounded=1;fontFamily=Helvetica;fontSize=12;fontColor=default;entryX=1;entryY=0.5;entryDx=0;entryDy=0;exitX=0;exitY=0.5;exitDx=0;exitDy=0;edgeStyle=orthogonalEdgeStyle;curved=1;" edge="1" parent="1" source="M4jZRAMzwR4Ym-2Xzj8O-44" target="M4jZRAMzwR4Ym-2Xzj8O-41">
          <mxGeometry width="50" height="50" relative="1" as="geometry">
            <mxPoint x="390" y="310" as="sourcePoint" />
            <mxPoint x="440" y="260" as="targetPoint" />
          </mxGeometry>
        </mxCell>
        <mxCell id="M4jZRAMzwR4Ym-2Xzj8O-50" value="" style="endArrow=none;html=1;rounded=1;fontFamily=Helvetica;fontSize=12;fontColor=default;exitX=1;exitY=0.5;exitDx=0;exitDy=0;entryX=0;entryY=0.5;entryDx=0;entryDy=0;edgeStyle=orthogonalEdgeStyle;curved=1;" edge="1" parent="1" source="M4jZRAMzwR4Ym-2Xzj8O-40" target="M4jZRAMzwR4Ym-2Xzj8O-43">
          <mxGeometry width="50" height="50" relative="1" as="geometry">
            <mxPoint x="400" y="320" as="sourcePoint" />
            <mxPoint x="450" y="270" as="targetPoint" />
          </mxGeometry>
        </mxCell>
        <mxCell id="M4jZRAMzwR4Ym-2Xzj8O-51" value="" style="endArrow=none;html=1;rounded=1;fontFamily=Helvetica;fontSize=12;fontColor=default;entryX=1;entryY=0.5;entryDx=0;entryDy=0;exitX=0;exitY=0.5;exitDx=0;exitDy=0;edgeStyle=orthogonalEdgeStyle;curved=1;" edge="1" parent="1" source="M4jZRAMzwR4Ym-2Xzj8O-40" target="M4jZRAMzwR4Ym-2Xzj8O-39">
          <mxGeometry width="50" height="50" relative="1" as="geometry">
            <mxPoint x="410" y="330" as="sourcePoint" />
            <mxPoint x="460" y="280" as="targetPoint" />
          </mxGeometry>
        </mxCell>
        <mxCell id="M4jZRAMzwR4Ym-2Xzj8O-52" value="" style="endArrow=none;html=1;rounded=1;fontFamily=Helvetica;fontSize=12;fontColor=default;entryX=0;entryY=0.5;entryDx=0;entryDy=0;exitX=1;exitY=0.5;exitDx=0;exitDy=0;edgeStyle=orthogonalEdgeStyle;curved=1;" edge="1" parent="1" source="M4jZRAMzwR4Ym-2Xzj8O-43" target="M4jZRAMzwR4Ym-2Xzj8O-42">
          <mxGeometry width="50" height="50" relative="1" as="geometry">
            <mxPoint x="420" y="340" as="sourcePoint" />
            <mxPoint x="470" y="290" as="targetPoint" />
          </mxGeometry>
        </mxCell>
        <mxCell id="M4jZRAMzwR4Ym-2Xzj8O-53" value="" style="endArrow=none;html=1;rounded=1;fontFamily=Helvetica;fontSize=12;fontColor=default;exitX=1;exitY=0.5;exitDx=0;exitDy=0;entryX=0;entryY=0.5;entryDx=0;entryDy=0;edgeStyle=orthogonalEdgeStyle;curved=1;" edge="1" parent="1" source="M4jZRAMzwR4Ym-2Xzj8O-39" target="M4jZRAMzwR4Ym-2Xzj8O-41">
          <mxGeometry width="50" height="50" relative="1" as="geometry">
            <mxPoint x="430" y="350" as="sourcePoint" />
            <mxPoint x="480" y="300" as="targetPoint" />
          </mxGeometry>
        </mxCell>
        <mxCell id="M4jZRAMzwR4Ym-2Xzj8O-56" value="" style="endArrow=none;html=1;rounded=1;fontFamily=Helvetica;fontSize=12;fontColor=default;exitX=0.448;exitY=-0.002;exitDx=0;exitDy=0;exitPerimeter=0;edgeStyle=orthogonalEdgeStyle;curved=1;" edge="1" parent="1" source="M4jZRAMzwR4Ym-2Xzj8O-46">
          <mxGeometry width="50" height="50" relative="1" as="geometry">
            <mxPoint x="370" y="290" as="sourcePoint" />
            <mxPoint x="280" y="120" as="targetPoint" />
          </mxGeometry>
        </mxCell>
        <mxCell id="M4jZRAMzwR4Ym-2Xzj8O-57" value="" style="rounded=1;whiteSpace=wrap;html=1;rotation=0;fillColor=#BFFFFF;glass=0;shadow=0;" vertex="1" parent="1">
          <mxGeometry x="40" y="580" width="100" height="40" as="geometry" />
        </mxCell>
        <mxCell id="M4jZRAMzwR4Ym-2Xzj8O-58" value="" style="rounded=1;whiteSpace=wrap;html=1;rotation=0;fillColor=#BFFFFF;glass=0;shadow=0;" vertex="1" parent="1">
          <mxGeometry x="180" y="660" width="100" height="40" as="geometry" />
        </mxCell>
        <mxCell id="M4jZRAMzwR4Ym-2Xzj8O-59" value="" style="rounded=1;whiteSpace=wrap;html=1;rotation=0;fillColor=#BFFFFF;glass=0;shadow=0;" vertex="1" parent="1">
          <mxGeometry x="180" y="580" width="100" height="40" as="geometry" />
        </mxCell>
        <mxCell id="M4jZRAMzwR4Ym-2Xzj8O-60" value="" style="rounded=1;whiteSpace=wrap;html=1;rotation=0;fillColor=#BFFFFF;glass=0;shadow=0;" vertex="1" parent="1">
          <mxGeometry x="180" y="500" width="100" height="40" as="geometry" />
        </mxCell>
        <mxCell id="M4jZRAMzwR4Ym-2Xzj8O-61" value="" style="rounded=1;whiteSpace=wrap;html=1;rotation=0;fillColor=#BFFFFF;glass=0;shadow=0;" vertex="1" parent="1">
          <mxGeometry x="320" y="660" width="100" height="40" as="geometry" />
        </mxCell>
        <mxCell id="M4jZRAMzwR4Ym-2Xzj8O-62" value="" style="rounded=1;whiteSpace=wrap;html=1;rotation=0;fillColor=#BFFFFF;glass=0;shadow=0;" vertex="1" parent="1">
          <mxGeometry x="320" y="580" width="100" height="40" as="geometry" />
        </mxCell>
        <mxCell id="M4jZRAMzwR4Ym-2Xzj8O-63" value="" style="rounded=1;whiteSpace=wrap;html=1;rotation=0;fillColor=#BFFFFF;glass=0;shadow=0;" vertex="1" parent="1">
          <mxGeometry x="320" y="500" width="100" height="40" as="geometry" />
        </mxCell>
        <mxCell id="M4jZRAMzwR4Ym-2Xzj8O-64" value="" style="endArrow=none;dashed=1;html=1;dashPattern=1 3;strokeWidth=2;rounded=1;fontFamily=Helvetica;fontSize=12;fontColor=default;entryX=0;entryY=0.5;entryDx=0;entryDy=0;edgeStyle=orthogonalEdgeStyle;curved=1;" edge="1" parent="1" target="M4jZRAMzwR4Ym-2Xzj8O-27">
          <mxGeometry width="50" height="50" relative="1" as="geometry">
            <mxPoint x="280" y="120" as="sourcePoint" />
            <mxPoint x="400" y="70" as="targetPoint" />
          </mxGeometry>
        </mxCell>
        <mxCell id="M4jZRAMzwR4Ym-2Xzj8O-65" value="" style="endArrow=none;dashed=1;html=1;dashPattern=1 3;strokeWidth=2;rounded=1;fontFamily=Helvetica;fontSize=12;fontColor=default;exitX=1;exitY=0.5;exitDx=0;exitDy=0;entryX=0;entryY=0.5;entryDx=0;entryDy=0;edgeStyle=orthogonalEdgeStyle;curved=1;" edge="1" parent="1" source="M4jZRAMzwR4Ym-2Xzj8O-29" target="M4jZRAMzwR4Ym-2Xzj8O-27">
          <mxGeometry width="50" height="50" relative="1" as="geometry">
            <mxPoint x="360" y="130" as="sourcePoint" />
            <mxPoint x="410" y="80" as="targetPoint" />
          </mxGeometry>
        </mxCell>
        <mxCell id="M4jZRAMzwR4Ym-2Xzj8O-66" value="" style="endArrow=none;html=1;rounded=1;fontFamily=Helvetica;fontSize=12;fontColor=default;entryX=0;entryY=0.5;entryDx=0;entryDy=0;exitX=1;exitY=0.5;exitDx=0;exitDy=0;" edge="1" parent="1" source="M4jZRAMzwR4Ym-2Xzj8O-57" target="M4jZRAMzwR4Ym-2Xzj8O-59">
          <mxGeometry width="50" height="50" relative="1" as="geometry">
            <mxPoint x="350" y="510" as="sourcePoint" />
            <mxPoint x="400" y="460" as="targetPoint" />
          </mxGeometry>
        </mxCell>
        <mxCell id="M4jZRAMzwR4Ym-2Xzj8O-67" value="" style="endArrow=none;html=1;rounded=1;fontFamily=Helvetica;fontSize=12;fontColor=default;entryX=1;entryY=0.5;entryDx=0;entryDy=0;exitX=0;exitY=0.5;exitDx=0;exitDy=0;edgeStyle=orthogonalEdgeStyle;curved=1;" edge="1" parent="1" source="M4jZRAMzwR4Ym-2Xzj8O-58" target="M4jZRAMzwR4Ym-2Xzj8O-57">
          <mxGeometry width="50" height="50" relative="1" as="geometry">
            <mxPoint x="360" y="520" as="sourcePoint" />
            <mxPoint x="410" y="470" as="targetPoint" />
          </mxGeometry>
        </mxCell>
        <mxCell id="M4jZRAMzwR4Ym-2Xzj8O-68" value="" style="endArrow=none;html=1;rounded=1;fontFamily=Helvetica;fontSize=12;fontColor=default;entryX=1;entryY=0.5;entryDx=0;entryDy=0;exitX=0;exitY=0.5;exitDx=0;exitDy=0;edgeStyle=orthogonalEdgeStyle;curved=1;" edge="1" parent="1" source="M4jZRAMzwR4Ym-2Xzj8O-63" target="M4jZRAMzwR4Ym-2Xzj8O-60">
          <mxGeometry width="50" height="50" relative="1" as="geometry">
            <mxPoint x="370" y="530" as="sourcePoint" />
            <mxPoint x="420" y="480" as="targetPoint" />
          </mxGeometry>
        </mxCell>
        <mxCell id="M4jZRAMzwR4Ym-2Xzj8O-69" value="" style="endArrow=none;html=1;rounded=1;fontFamily=Helvetica;fontSize=12;fontColor=default;entryX=1;entryY=0.5;entryDx=0;entryDy=0;exitX=0;exitY=0.5;exitDx=0;exitDy=0;" edge="1" parent="1" source="M4jZRAMzwR4Ym-2Xzj8O-62" target="M4jZRAMzwR4Ym-2Xzj8O-59">
          <mxGeometry width="50" height="50" relative="1" as="geometry">
            <mxPoint x="380" y="540" as="sourcePoint" />
            <mxPoint x="430" y="490" as="targetPoint" />
          </mxGeometry>
        </mxCell>
        <mxCell id="M4jZRAMzwR4Ym-2Xzj8O-70" value="" style="endArrow=none;html=1;rounded=1;fontFamily=Helvetica;fontSize=12;fontColor=default;entryX=1;entryY=0.5;entryDx=0;entryDy=0;exitX=0;exitY=0.5;exitDx=0;exitDy=0;" edge="1" parent="1" source="M4jZRAMzwR4Ym-2Xzj8O-61" target="M4jZRAMzwR4Ym-2Xzj8O-58">
          <mxGeometry width="50" height="50" relative="1" as="geometry">
            <mxPoint x="390" y="550" as="sourcePoint" />
            <mxPoint x="440" y="500" as="targetPoint" />
          </mxGeometry>
        </mxCell>
        <mxCell id="M4jZRAMzwR4Ym-2Xzj8O-71" value="" style="endArrow=none;html=1;rounded=1;fontFamily=Helvetica;fontSize=12;fontColor=default;exitX=1;exitY=0.5;exitDx=0;exitDy=0;entryX=0;entryY=0.5;entryDx=0;entryDy=0;edgeStyle=orthogonalEdgeStyle;curved=1;" edge="1" parent="1" source="M4jZRAMzwR4Ym-2Xzj8O-57" target="M4jZRAMzwR4Ym-2Xzj8O-60">
          <mxGeometry width="50" height="50" relative="1" as="geometry">
            <mxPoint x="400" y="560" as="sourcePoint" />
            <mxPoint x="450" y="510" as="targetPoint" />
          </mxGeometry>
        </mxCell>
        <mxCell id="M4jZRAMzwR4Ym-2Xzj8O-72" value="" style="curved=1;endArrow=none;html=1;rounded=1;fontFamily=Helvetica;fontSize=12;fontColor=default;exitX=0.5;exitY=0;exitDx=0;exitDy=0;entryX=0.5;entryY=1;entryDx=0;entryDy=0;startArrow=none;startFill=0;" edge="1" parent="1" source="M4jZRAMzwR4Ym-2Xzj8O-60" target="M4jZRAMzwR4Ym-2Xzj8O-46">
          <mxGeometry width="50" height="50" relative="1" as="geometry">
            <mxPoint x="330" y="390" as="sourcePoint" />
            <mxPoint x="380" y="340" as="targetPoint" />
            <Array as="points">
              <mxPoint x="290" y="430" />
              <mxPoint x="330" y="390" />
              <mxPoint x="270" y="340" />
              <mxPoint x="310" y="300" />
              <mxPoint x="310" y="240" />
            </Array>
          </mxGeometry>
        </mxCell>
        <mxCell id="M4jZRAMzwR4Ym-2Xzj8O-73" value="" style="rounded=1;whiteSpace=wrap;html=1;rotation=0;fillColor=#9662D0;" vertex="1" parent="1">
          <mxGeometry x="40" y="860" width="100" height="40" as="geometry" />
        </mxCell>
        <mxCell id="M4jZRAMzwR4Ym-2Xzj8O-74" value="" style="rounded=1;whiteSpace=wrap;html=1;rotation=0;fillColor=#9662D0;" vertex="1" parent="1">
          <mxGeometry x="180" y="900" width="100" height="40" as="geometry" />
        </mxCell>
        <mxCell id="M4jZRAMzwR4Ym-2Xzj8O-75" value="" style="rounded=1;whiteSpace=wrap;html=1;rotation=0;fillColor=#9662D0;" vertex="1" parent="1">
          <mxGeometry x="180" y="820" width="100" height="40" as="geometry" />
        </mxCell>
        <mxCell id="M4jZRAMzwR4Ym-2Xzj8O-76" value="" style="rounded=1;whiteSpace=wrap;html=1;rotation=0;fillColor=#9662D0;" vertex="1" parent="1">
          <mxGeometry x="320" y="900" width="100" height="40" as="geometry" />
        </mxCell>
        <mxCell id="M4jZRAMzwR4Ym-2Xzj8O-77" value="" style="rounded=1;whiteSpace=wrap;html=1;rotation=0;fillColor=#9662D0;" vertex="1" parent="1">
          <mxGeometry x="320" y="820" width="100" height="40" as="geometry" />
        </mxCell>
        <mxCell id="M4jZRAMzwR4Ym-2Xzj8O-78" value="" style="rounded=1;whiteSpace=wrap;html=1;rotation=0;fillColor=#9662D0;" vertex="1" parent="1">
          <mxGeometry x="180" y="740" width="100" height="40" as="geometry" />
        </mxCell>
        <mxCell id="M4jZRAMzwR4Ym-2Xzj8O-79" value="" style="endArrow=none;html=1;rounded=1;fontFamily=Helvetica;fontSize=12;fontColor=default;exitX=1;exitY=0.5;exitDx=0;exitDy=0;entryX=0;entryY=0.5;entryDx=0;entryDy=0;edgeStyle=orthogonalEdgeStyle;curved=1;" edge="1" parent="1" source="M4jZRAMzwR4Ym-2Xzj8O-73" target="M4jZRAMzwR4Ym-2Xzj8O-74">
          <mxGeometry width="50" height="50" relative="1" as="geometry">
            <mxPoint x="330" y="710" as="sourcePoint" />
            <mxPoint x="380" y="660" as="targetPoint" />
          </mxGeometry>
        </mxCell>
        <mxCell id="M4jZRAMzwR4Ym-2Xzj8O-80" value="" style="endArrow=none;html=1;rounded=1;fontFamily=Helvetica;fontSize=12;fontColor=default;exitX=0.5;exitY=1;exitDx=0;exitDy=0;" edge="1" parent="1" source="M4jZRAMzwR4Ym-2Xzj8O-78" target="M4jZRAMzwR4Ym-2Xzj8O-75">
          <mxGeometry width="50" height="50" relative="1" as="geometry">
            <mxPoint x="340" y="720" as="sourcePoint" />
            <mxPoint x="390" y="670" as="targetPoint" />
          </mxGeometry>
        </mxCell>
        <mxCell id="M4jZRAMzwR4Ym-2Xzj8O-81" value="" style="endArrow=none;html=1;rounded=1;fontFamily=Helvetica;fontSize=12;fontColor=default;exitX=1;exitY=0.5;exitDx=0;exitDy=0;entryX=0;entryY=0.5;entryDx=0;entryDy=0;edgeStyle=orthogonalEdgeStyle;curved=1;" edge="1" parent="1" source="M4jZRAMzwR4Ym-2Xzj8O-73" target="M4jZRAMzwR4Ym-2Xzj8O-75">
          <mxGeometry width="50" height="50" relative="1" as="geometry">
            <mxPoint x="350" y="730" as="sourcePoint" />
            <mxPoint x="400" y="680" as="targetPoint" />
          </mxGeometry>
        </mxCell>
        <mxCell id="M4jZRAMzwR4Ym-2Xzj8O-82" value="" style="endArrow=none;dashed=1;html=1;dashPattern=1 3;strokeWidth=2;rounded=1;fontFamily=Helvetica;fontSize=12;fontColor=default;entryX=0;entryY=0.5;entryDx=0;entryDy=0;exitX=1;exitY=0.5;exitDx=0;exitDy=0;edgeStyle=orthogonalEdgeStyle;curved=1;" edge="1" parent="1" source="M4jZRAMzwR4Ym-2Xzj8O-74" target="M4jZRAMzwR4Ym-2Xzj8O-77">
          <mxGeometry width="50" height="50" relative="1" as="geometry">
            <mxPoint x="480" y="880" as="sourcePoint" />
            <mxPoint x="520" y="840" as="targetPoint" />
          </mxGeometry>
        </mxCell>
        <mxCell id="M4jZRAMzwR4Ym-2Xzj8O-83" value="" style="endArrow=none;dashed=1;html=1;dashPattern=1 3;strokeWidth=2;rounded=1;fontFamily=Helvetica;fontSize=12;fontColor=default;exitX=0;exitY=0.5;exitDx=0;exitDy=0;entryX=1;entryY=0.5;entryDx=0;entryDy=0;edgeStyle=orthogonalEdgeStyle;curved=1;" edge="1" parent="1" source="M4jZRAMzwR4Ym-2Xzj8O-76" target="M4jZRAMzwR4Ym-2Xzj8O-75">
          <mxGeometry width="50" height="50" relative="1" as="geometry">
            <mxPoint x="490" y="890" as="sourcePoint" />
            <mxPoint x="280" y="800" as="targetPoint" />
          </mxGeometry>
        </mxCell>
        <mxCell id="M4jZRAMzwR4Ym-2Xzj8O-84" value="" style="endArrow=none;dashed=1;html=1;dashPattern=1 3;strokeWidth=2;rounded=1;fontFamily=Helvetica;fontSize=12;fontColor=default;entryX=1;entryY=0.5;entryDx=0;entryDy=0;exitX=0;exitY=0.5;exitDx=0;exitDy=0;" edge="1" parent="1" source="M4jZRAMzwR4Ym-2Xzj8O-76" target="M4jZRAMzwR4Ym-2Xzj8O-74">
          <mxGeometry width="50" height="50" relative="1" as="geometry">
            <mxPoint x="500" y="900" as="sourcePoint" />
            <mxPoint x="540" y="860" as="targetPoint" />
          </mxGeometry>
        </mxCell>
        <mxCell id="M4jZRAMzwR4Ym-2Xzj8O-85" value="" style="endArrow=none;dashed=1;html=1;dashPattern=1 3;strokeWidth=2;rounded=1;fontFamily=Helvetica;fontSize=12;fontColor=default;exitX=1;exitY=0.5;exitDx=0;exitDy=0;" edge="1" parent="1" source="M4jZRAMzwR4Ym-2Xzj8O-75">
          <mxGeometry width="50" height="50" relative="1" as="geometry">
            <mxPoint x="510" y="910" as="sourcePoint" />
            <mxPoint x="321" y="840" as="targetPoint" />
          </mxGeometry>
        </mxCell>
        <mxCell id="M4jZRAMzwR4Ym-2Xzj8O-86" value="" style="rounded=1;whiteSpace=wrap;html=1;rotation=0;fillColor=#FF8080;" vertex="1" parent="1">
          <mxGeometry x="460" y="1060" width="100" height="40" as="geometry" />
        </mxCell>
        <mxCell id="M4jZRAMzwR4Ym-2Xzj8O-87" value="" style="rounded=1;whiteSpace=wrap;html=1;rotation=0;fillColor=#FF8080;" vertex="1" parent="1">
          <mxGeometry x="180" y="1060" width="100" height="40" as="geometry" />
        </mxCell>
        <mxCell id="M4jZRAMzwR4Ym-2Xzj8O-88" value="" style="rounded=1;whiteSpace=wrap;html=1;rotation=0;fillColor=#FF8080;" vertex="1" parent="1">
          <mxGeometry x="40" y="1020" width="100" height="40" as="geometry" />
        </mxCell>
        <mxCell id="M4jZRAMzwR4Ym-2Xzj8O-89" value="" style="rounded=1;whiteSpace=wrap;html=1;rotation=0;fillColor=#FF8080;" vertex="1" parent="1">
          <mxGeometry x="180" y="980" width="100" height="40" as="geometry" />
        </mxCell>
        <mxCell id="M4jZRAMzwR4Ym-2Xzj8O-90" value="" style="rounded=1;whiteSpace=wrap;html=1;rotation=0;fillColor=#FF8080;" vertex="1" parent="1">
          <mxGeometry x="320" y="1020" width="100" height="40" as="geometry" />
        </mxCell>
        <mxCell id="M4jZRAMzwR4Ym-2Xzj8O-91" value="" style="rounded=1;whiteSpace=wrap;html=1;rotation=0;fillColor=#FF8080;" vertex="1" parent="1">
          <mxGeometry x="460" y="980" width="100" height="40" as="geometry" />
        </mxCell>
        <mxCell id="M4jZRAMzwR4Ym-2Xzj8O-92" value="" style="endArrow=none;html=1;rounded=1;fontFamily=Helvetica;fontSize=12;fontColor=default;entryX=0;entryY=0.5;entryDx=0;entryDy=0;exitX=1;exitY=0.5;exitDx=0;exitDy=0;edgeStyle=orthogonalEdgeStyle;curved=1;" edge="1" parent="1" source="M4jZRAMzwR4Ym-2Xzj8O-88" target="M4jZRAMzwR4Ym-2Xzj8O-89">
          <mxGeometry width="50" height="50" relative="1" as="geometry">
            <mxPoint x="140" y="1000" as="sourcePoint" />
            <mxPoint x="190" y="950" as="targetPoint" />
          </mxGeometry>
        </mxCell>
        <mxCell id="M4jZRAMzwR4Ym-2Xzj8O-93" value="" style="endArrow=none;html=1;rounded=1;fontFamily=Helvetica;fontSize=12;fontColor=default;exitX=1;exitY=0.5;exitDx=0;exitDy=0;entryX=0;entryY=0.5;entryDx=0;entryDy=0;edgeStyle=orthogonalEdgeStyle;curved=1;" edge="1" parent="1" source="M4jZRAMzwR4Ym-2Xzj8O-89" target="M4jZRAMzwR4Ym-2Xzj8O-90">
          <mxGeometry width="50" height="50" relative="1" as="geometry">
            <mxPoint x="340" y="1040" as="sourcePoint" />
            <mxPoint x="390" y="990" as="targetPoint" />
          </mxGeometry>
        </mxCell>
        <mxCell id="M4jZRAMzwR4Ym-2Xzj8O-94" value="" style="endArrow=none;html=1;rounded=1;fontFamily=Helvetica;fontSize=12;fontColor=default;entryX=1;entryY=0.5;entryDx=0;entryDy=0;exitX=0;exitY=0.5;exitDx=0;exitDy=0;edgeStyle=orthogonalEdgeStyle;curved=1;" edge="1" parent="1" source="M4jZRAMzwR4Ym-2Xzj8O-91" target="M4jZRAMzwR4Ym-2Xzj8O-90">
          <mxGeometry width="50" height="50" relative="1" as="geometry">
            <mxPoint x="350" y="1050" as="sourcePoint" />
            <mxPoint x="400" y="1000" as="targetPoint" />
          </mxGeometry>
        </mxCell>
        <mxCell id="M4jZRAMzwR4Ym-2Xzj8O-95" value="" style="endArrow=none;html=1;rounded=1;fontFamily=Helvetica;fontSize=12;fontColor=default;entryX=1.013;entryY=0.653;entryDx=0;entryDy=0;entryPerimeter=0;exitX=0;exitY=0.5;exitDx=0;exitDy=0;edgeStyle=orthogonalEdgeStyle;curved=1;" edge="1" parent="1" source="M4jZRAMzwR4Ym-2Xzj8O-86" target="M4jZRAMzwR4Ym-2Xzj8O-90">
          <mxGeometry width="50" height="50" relative="1" as="geometry">
            <mxPoint x="360" y="1060" as="sourcePoint" />
            <mxPoint x="410" y="1010" as="targetPoint" />
          </mxGeometry>
        </mxCell>
        <mxCell id="M4jZRAMzwR4Ym-2Xzj8O-96" value="" style="endArrow=none;html=1;rounded=1;fontFamily=Helvetica;fontSize=12;fontColor=default;entryX=1;entryY=0.5;entryDx=0;entryDy=0;edgeStyle=orthogonalEdgeStyle;curved=1;" edge="1" parent="1" target="M4jZRAMzwR4Ym-2Xzj8O-88">
          <mxGeometry width="50" height="50" relative="1" as="geometry">
            <mxPoint x="179" y="1080" as="sourcePoint" />
            <mxPoint x="385" y="1034" as="targetPoint" />
          </mxGeometry>
        </mxCell>
        <mxCell id="M4jZRAMzwR4Ym-2Xzj8O-97" value="" style="rounded=1;whiteSpace=wrap;html=1;rotation=0;fillColor=#3A8EED;" vertex="1" parent="1">
          <mxGeometry x="320" y="1140" width="100" height="40" as="geometry" />
        </mxCell>
        <mxCell id="M4jZRAMzwR4Ym-2Xzj8O-98" value="" style="rounded=1;whiteSpace=wrap;html=1;rotation=0;fillColor=#3A8EED;" vertex="1" parent="1">
          <mxGeometry x="320" y="1220" width="100" height="40" as="geometry" />
        </mxCell>
        <mxCell id="M4jZRAMzwR4Ym-2Xzj8O-99" value="" style="rounded=1;whiteSpace=wrap;html=1;rotation=0;fillColor=#3A8EED;" vertex="1" parent="1">
          <mxGeometry x="320" y="1300" width="100" height="40" as="geometry" />
        </mxCell>
        <mxCell id="M4jZRAMzwR4Ym-2Xzj8O-100" value="" style="rounded=1;whiteSpace=wrap;html=1;rotation=0;fillColor=#3A8EED;" vertex="1" parent="1">
          <mxGeometry x="180" y="1220" width="100" height="40" as="geometry" />
        </mxCell>
        <mxCell id="M4jZRAMzwR4Ym-2Xzj8O-101" value="" style="rounded=1;whiteSpace=wrap;html=1;rotation=0;fillColor=#3A8EED;" vertex="1" parent="1">
          <mxGeometry x="180" y="1300" width="100" height="40" as="geometry" />
        </mxCell>
        <mxCell id="M4jZRAMzwR4Ym-2Xzj8O-102" value="" style="rounded=1;whiteSpace=wrap;html=1;rotation=0;fillColor=#3A8EED;" vertex="1" parent="1">
          <mxGeometry x="40" y="1260" width="100" height="40" as="geometry" />
        </mxCell>
        <mxCell id="M4jZRAMzwR4Ym-2Xzj8O-103" value="" style="endArrow=none;html=1;rounded=1;fontFamily=Helvetica;fontSize=12;fontColor=default;entryX=0;entryY=0.5;entryDx=0;entryDy=0;exitX=1;exitY=0.5;exitDx=0;exitDy=0;edgeStyle=orthogonalEdgeStyle;curved=1;" edge="1" parent="1" source="M4jZRAMzwR4Ym-2Xzj8O-100" target="M4jZRAMzwR4Ym-2Xzj8O-97">
          <mxGeometry width="50" height="50" relative="1" as="geometry">
            <mxPoint x="330" y="1270" as="sourcePoint" />
            <mxPoint x="380" y="1220" as="targetPoint" />
          </mxGeometry>
        </mxCell>
        <mxCell id="M4jZRAMzwR4Ym-2Xzj8O-104" value="" style="endArrow=none;html=1;rounded=1;fontFamily=Helvetica;fontSize=12;fontColor=default;exitX=0.5;exitY=1;exitDx=0;exitDy=0;entryX=0;entryY=0.5;entryDx=0;entryDy=0;edgeStyle=orthogonalEdgeStyle;curved=1;" edge="1" parent="1" source="M4jZRAMzwR4Ym-2Xzj8O-87" target="M4jZRAMzwR4Ym-2Xzj8O-97">
          <mxGeometry width="50" height="50" relative="1" as="geometry">
            <mxPoint x="340" y="1280" as="sourcePoint" />
            <mxPoint x="390" y="1230" as="targetPoint" />
          </mxGeometry>
        </mxCell>
        <mxCell id="M4jZRAMzwR4Ym-2Xzj8O-105" value="" style="endArrow=none;html=1;rounded=1;fontFamily=Helvetica;fontSize=12;fontColor=default;entryX=1;entryY=0.5;entryDx=0;entryDy=0;exitX=0;exitY=0.5;exitDx=0;exitDy=0;edgeStyle=orthogonalEdgeStyle;curved=1;" edge="1" parent="1" source="M4jZRAMzwR4Ym-2Xzj8O-99" target="M4jZRAMzwR4Ym-2Xzj8O-100">
          <mxGeometry width="50" height="50" relative="1" as="geometry">
            <mxPoint x="330" y="1270" as="sourcePoint" />
            <mxPoint x="380" y="1220" as="targetPoint" />
          </mxGeometry>
        </mxCell>
        <mxCell id="M4jZRAMzwR4Ym-2Xzj8O-106" value="" style="endArrow=none;html=1;rounded=1;fontFamily=Helvetica;fontSize=12;fontColor=default;entryX=0;entryY=0.5;entryDx=0;entryDy=0;" edge="1" parent="1" target="M4jZRAMzwR4Ym-2Xzj8O-98">
          <mxGeometry width="50" height="50" relative="1" as="geometry">
            <mxPoint x="280" y="1240" as="sourcePoint" />
            <mxPoint x="390" y="1230" as="targetPoint" />
          </mxGeometry>
        </mxCell>
        <mxCell id="M4jZRAMzwR4Ym-2Xzj8O-107" value="" style="endArrow=none;html=1;rounded=1;fontFamily=Helvetica;fontSize=12;fontColor=default;entryX=1;entryY=0.5;entryDx=0;entryDy=0;exitX=0;exitY=0.5;exitDx=0;exitDy=0;edgeStyle=orthogonalEdgeStyle;curved=1;" edge="1" parent="1" source="M4jZRAMzwR4Ym-2Xzj8O-101" target="M4jZRAMzwR4Ym-2Xzj8O-102">
          <mxGeometry width="50" height="50" relative="1" as="geometry">
            <mxPoint x="330" y="1270" as="sourcePoint" />
            <mxPoint x="380" y="1220" as="targetPoint" />
          </mxGeometry>
        </mxCell>
        <mxCell id="M4jZRAMzwR4Ym-2Xzj8O-108" value="" style="endArrow=none;html=1;rounded=1;fontFamily=Helvetica;fontSize=12;fontColor=default;exitX=1;exitY=0.5;exitDx=0;exitDy=0;entryX=0;entryY=0.5;entryDx=0;entryDy=0;edgeStyle=orthogonalEdgeStyle;curved=1;" edge="1" parent="1" source="M4jZRAMzwR4Ym-2Xzj8O-102" target="M4jZRAMzwR4Ym-2Xzj8O-100">
          <mxGeometry width="50" height="50" relative="1" as="geometry">
            <mxPoint x="340" y="1280" as="sourcePoint" />
            <mxPoint x="390" y="1230" as="targetPoint" />
          </mxGeometry>
        </mxCell>
        <mxCell id="M4jZRAMzwR4Ym-2Xzj8O-109" value="" style="rounded=1;whiteSpace=wrap;html=1;rotation=0;fillColor=#9662D0;" vertex="1" parent="1">
          <mxGeometry x="600" y="1180" width="100" height="40" as="geometry" />
        </mxCell>
        <mxCell id="M4jZRAMzwR4Ym-2Xzj8O-110" value="" style="rounded=1;whiteSpace=wrap;html=1;rotation=0;fillColor=#FF8080;" vertex="1" parent="1">
          <mxGeometry x="600" y="1240" width="100" height="40" as="geometry" />
        </mxCell>
        <mxCell id="M4jZRAMzwR4Ym-2Xzj8O-111" value="" style="rounded=1;whiteSpace=wrap;html=1;rotation=0;fillColor=#3A8EED;" vertex="1" parent="1">
          <mxGeometry x="600" y="1300" width="100" height="40" as="geometry" />
        </mxCell>
        <mxCell id="M4jZRAMzwR4Ym-2Xzj8O-112" value="" style="rounded=1;whiteSpace=wrap;html=1;rotation=0;fillColor=#BFFFFF;glass=0;shadow=0;" vertex="1" parent="1">
          <mxGeometry x="600" y="1120" width="100" height="40" as="geometry" />
        </mxCell>
        <mxCell id="M4jZRAMzwR4Ym-2Xzj8O-113" value="" style="rounded=1;whiteSpace=wrap;html=1;rotation=0;fillColor=#DEAD26;" vertex="1" parent="1">
          <mxGeometry x="600" y="1060" width="100" height="40" as="geometry" />
        </mxCell>
        <mxCell id="M4jZRAMzwR4Ym-2Xzj8O-114" value="" style="rounded=1;whiteSpace=wrap;html=1;rotation=0;fillColor=#CCCCCC;" vertex="1" parent="1">
          <mxGeometry x="600" y="1000" width="100" height="40" as="geometry" />
        </mxCell>
        <mxCell id="M4jZRAMzwR4Ym-2Xzj8O-116" value="" style="endArrow=none;dashed=1;html=1;dashPattern=1 3;strokeWidth=2;rounded=1;fontFamily=Helvetica;fontSize=12;fontColor=default;exitX=0.5;exitY=0;exitDx=0;exitDy=0;entryX=0.5;entryY=1;entryDx=0;entryDy=0;" edge="1" parent="1" source="M4jZRAMzwR4Ym-2Xzj8O-88" target="M4jZRAMzwR4Ym-2Xzj8O-73">
          <mxGeometry width="50" height="50" relative="1" as="geometry">
            <mxPoint x="330" y="930" as="sourcePoint" />
            <mxPoint x="290" y="850" as="targetPoint" />
          </mxGeometry>
        </mxCell>
        <mxCell id="M4jZRAMzwR4Ym-2Xzj8O-117" value="" style="endArrow=none;dashed=1;html=1;dashPattern=1 3;strokeWidth=2;rounded=1;fontFamily=Helvetica;fontSize=12;fontColor=default;entryX=0.5;entryY=1;entryDx=0;entryDy=0;exitX=0.5;exitY=0;exitDx=0;exitDy=0;" edge="1" parent="1" source="M4jZRAMzwR4Ym-2Xzj8O-73" target="M4jZRAMzwR4Ym-2Xzj8O-57">
          <mxGeometry width="50" height="50" relative="1" as="geometry">
            <mxPoint x="100" y="860" as="sourcePoint" />
            <mxPoint x="100" y="910" as="targetPoint" />
          </mxGeometry>
        </mxCell>
        <mxCell id="M4jZRAMzwR4Ym-2Xzj8O-118" value="" style="curved=1;endArrow=nine;html=1;rounded=1;fontFamily=Helvetica;fontSize=12;fontColor=default;entryX=0.5;entryY=1;entryDx=0;entryDy=0;exitX=0.5;exitY=0;exitDx=0;exitDy=0;dashed=1;edgeStyle=orthogonalEdgeStyle;" edge="1" parent="1" source="M4jZRAMzwR4Ym-2Xzj8O-73" target="M4jZRAMzwR4Ym-2Xzj8O-30">
          <mxGeometry width="50" height="50" relative="1" as="geometry">
            <mxPoint y="530" as="sourcePoint" />
            <mxPoint x="50" y="480" as="targetPoint" />
          </mxGeometry>
        </mxCell>
        <mxCell id="M4jZRAMzwR4Ym-2Xzj8O-159" value="" style="group" vertex="1" connectable="0" parent="1">
          <mxGeometry x="100" y="80" width="35" height="20" as="geometry" />
        </mxCell>
        <mxCell id="M4jZRAMzwR4Ym-2Xzj8O-160" value="" style="shape=waypoint;fillStyle=solid;size=3;movable=1;resizable=1;rotatable=1;deletable=1;editable=1;locked=0;connectable=1;strokeColor=#FFFFFF;" vertex="1" parent="M4jZRAMzwR4Ym-2Xzj8O-159">
          <mxGeometry width="20" height="20" as="geometry" />
        </mxCell>
        <mxCell id="M4jZRAMzwR4Ym-2Xzj8O-161" value="" style="shape=waypoint;fillStyle=solid;size=3;movable=1;resizable=1;rotatable=1;deletable=1;editable=1;locked=0;connectable=1;" vertex="1" parent="M4jZRAMzwR4Ym-2Xzj8O-159">
          <mxGeometry x="5" width="20" height="20" as="geometry" />
        </mxCell>
        <mxCell id="M4jZRAMzwR4Ym-2Xzj8O-162" value="" style="shape=waypoint;fillStyle=solid;size=3;movable=1;resizable=1;rotatable=1;deletable=1;editable=1;locked=0;connectable=1;" vertex="1" parent="M4jZRAMzwR4Ym-2Xzj8O-159">
          <mxGeometry x="15" width="20" height="20" as="geometry" />
        </mxCell>
        <mxCell id="M4jZRAMzwR4Ym-2Xzj8O-163" value="" style="shape=waypoint;fillStyle=solid;size=3;movable=1;resizable=1;rotatable=1;deletable=1;editable=1;locked=0;connectable=1;" vertex="1" parent="M4jZRAMzwR4Ym-2Xzj8O-159">
          <mxGeometry x="10" width="20" height="20" as="geometry" />
        </mxCell>
        <mxCell id="M4jZRAMzwR4Ym-2Xzj8O-169" value="" style="group" vertex="1" connectable="0" parent="1">
          <mxGeometry x="240" y="40" width="35" height="20" as="geometry" />
        </mxCell>
        <mxCell id="M4jZRAMzwR4Ym-2Xzj8O-170" value="" style="shape=waypoint;fillStyle=solid;size=3;movable=1;resizable=1;rotatable=1;deletable=1;editable=1;locked=0;connectable=1;fillColor=#FFFFFF;strokeColor=#FFFFFF;" vertex="1" parent="M4jZRAMzwR4Ym-2Xzj8O-169">
          <mxGeometry width="20" height="20" as="geometry" />
        </mxCell>
        <mxCell id="M4jZRAMzwR4Ym-2Xzj8O-171" value="" style="shape=waypoint;fillStyle=solid;size=3;movable=1;resizable=1;rotatable=1;deletable=1;editable=1;locked=0;connectable=1;strokeColor=#FFFFFF;" vertex="1" parent="M4jZRAMzwR4Ym-2Xzj8O-169">
          <mxGeometry x="5" width="20" height="20" as="geometry" />
        </mxCell>
        <mxCell id="M4jZRAMzwR4Ym-2Xzj8O-172" value="" style="shape=waypoint;fillStyle=solid;size=3;movable=1;resizable=1;rotatable=1;deletable=1;editable=1;locked=0;connectable=1;" vertex="1" parent="M4jZRAMzwR4Ym-2Xzj8O-169">
          <mxGeometry x="15" width="20" height="20" as="geometry" />
        </mxCell>
        <mxCell id="M4jZRAMzwR4Ym-2Xzj8O-173" value="" style="shape=waypoint;fillStyle=solid;size=3;movable=1;resizable=1;rotatable=1;deletable=1;editable=1;locked=0;connectable=1;" vertex="1" parent="M4jZRAMzwR4Ym-2Xzj8O-169">
          <mxGeometry x="10" width="20" height="20" as="geometry" />
        </mxCell>
        <mxCell id="M4jZRAMzwR4Ym-2Xzj8O-180" value="" style="group" vertex="1" connectable="0" parent="1">
          <mxGeometry x="380" y="80" width="35" height="20" as="geometry" />
        </mxCell>
        <mxCell id="M4jZRAMzwR4Ym-2Xzj8O-181" value="" style="shape=waypoint;fillStyle=solid;size=3;movable=1;resizable=1;rotatable=1;deletable=1;editable=1;locked=0;connectable=1;strokeColor=#FFFFFF;" vertex="1" parent="M4jZRAMzwR4Ym-2Xzj8O-180">
          <mxGeometry width="20" height="20" as="geometry" />
        </mxCell>
        <mxCell id="M4jZRAMzwR4Ym-2Xzj8O-182" value="" style="shape=waypoint;fillStyle=solid;size=3;movable=1;resizable=1;rotatable=1;deletable=1;editable=1;locked=0;connectable=1;strokeColor=#FFFFFF;" vertex="1" parent="M4jZRAMzwR4Ym-2Xzj8O-180">
          <mxGeometry x="5" width="20" height="20" as="geometry" />
        </mxCell>
        <mxCell id="M4jZRAMzwR4Ym-2Xzj8O-183" value="" style="shape=waypoint;fillStyle=solid;size=3;movable=1;resizable=1;rotatable=1;deletable=1;editable=1;locked=0;connectable=1;" vertex="1" parent="M4jZRAMzwR4Ym-2Xzj8O-180">
          <mxGeometry x="15" width="20" height="20" as="geometry" />
        </mxCell>
        <mxCell id="M4jZRAMzwR4Ym-2Xzj8O-184" value="" style="shape=waypoint;fillStyle=solid;size=3;movable=1;resizable=1;rotatable=1;deletable=1;editable=1;locked=0;connectable=1;" vertex="1" parent="M4jZRAMzwR4Ym-2Xzj8O-180">
          <mxGeometry x="10" width="20" height="20" as="geometry" />
        </mxCell>
        <mxCell id="M4jZRAMzwR4Ym-2Xzj8O-201" value="" style="group" vertex="1" connectable="0" parent="1">
          <mxGeometry x="520" y="120" width="35" height="20" as="geometry" />
        </mxCell>
        <mxCell id="M4jZRAMzwR4Ym-2Xzj8O-202" value="" style="shape=waypoint;fillStyle=solid;size=3;movable=1;resizable=1;rotatable=1;deletable=1;editable=1;locked=0;connectable=1;strokeColor=#FFFFFF;" vertex="1" parent="M4jZRAMzwR4Ym-2Xzj8O-201">
          <mxGeometry width="20" height="20" as="geometry" />
        </mxCell>
        <mxCell id="M4jZRAMzwR4Ym-2Xzj8O-203" value="" style="shape=waypoint;fillStyle=solid;size=3;movable=1;resizable=1;rotatable=1;deletable=1;editable=1;locked=0;connectable=1;" vertex="1" parent="M4jZRAMzwR4Ym-2Xzj8O-201">
          <mxGeometry x="5" width="20" height="20" as="geometry" />
        </mxCell>
        <mxCell id="M4jZRAMzwR4Ym-2Xzj8O-204" value="" style="shape=waypoint;fillStyle=solid;size=3;movable=1;resizable=1;rotatable=1;deletable=1;editable=1;locked=0;connectable=1;" vertex="1" parent="M4jZRAMzwR4Ym-2Xzj8O-201">
          <mxGeometry x="15" width="20" height="20" as="geometry" />
        </mxCell>
        <mxCell id="M4jZRAMzwR4Ym-2Xzj8O-205" value="" style="shape=waypoint;fillStyle=solid;size=3;movable=1;resizable=1;rotatable=1;deletable=1;editable=1;locked=0;connectable=1;" vertex="1" parent="M4jZRAMzwR4Ym-2Xzj8O-201">
          <mxGeometry x="10" width="20" height="20" as="geometry" />
        </mxCell>
        <mxCell id="M4jZRAMzwR4Ym-2Xzj8O-206" value="" style="group" vertex="1" connectable="0" parent="1">
          <mxGeometry x="520" y="40" width="35" height="20" as="geometry" />
        </mxCell>
        <mxCell id="M4jZRAMzwR4Ym-2Xzj8O-207" value="" style="shape=waypoint;fillStyle=solid;size=3;movable=1;resizable=1;rotatable=1;deletable=1;editable=1;locked=0;connectable=1;strokeColor=#FFFFFF;" vertex="1" parent="M4jZRAMzwR4Ym-2Xzj8O-206">
          <mxGeometry width="20" height="20" as="geometry" />
        </mxCell>
        <mxCell id="M4jZRAMzwR4Ym-2Xzj8O-208" value="" style="shape=waypoint;fillStyle=solid;size=3;movable=1;resizable=1;rotatable=1;deletable=1;editable=1;locked=0;connectable=1;" vertex="1" parent="M4jZRAMzwR4Ym-2Xzj8O-206">
          <mxGeometry x="5" width="20" height="20" as="geometry" />
        </mxCell>
        <mxCell id="M4jZRAMzwR4Ym-2Xzj8O-209" value="" style="shape=waypoint;fillStyle=solid;size=3;movable=1;resizable=1;rotatable=1;deletable=1;editable=1;locked=0;connectable=1;" vertex="1" parent="M4jZRAMzwR4Ym-2Xzj8O-206">
          <mxGeometry x="15" width="20" height="20" as="geometry" />
        </mxCell>
        <mxCell id="M4jZRAMzwR4Ym-2Xzj8O-210" value="" style="shape=waypoint;fillStyle=solid;size=3;movable=1;resizable=1;rotatable=1;deletable=1;editable=1;locked=0;connectable=1;" vertex="1" parent="M4jZRAMzwR4Ym-2Xzj8O-206">
          <mxGeometry x="10" width="20" height="20" as="geometry" />
        </mxCell>
        <mxCell id="M4jZRAMzwR4Ym-2Xzj8O-217" value="" style="group" vertex="1" connectable="0" parent="1">
          <mxGeometry x="660" y="80" width="35" height="20" as="geometry" />
        </mxCell>
        <mxCell id="M4jZRAMzwR4Ym-2Xzj8O-218" value="" style="shape=waypoint;fillStyle=solid;size=3;movable=1;resizable=1;rotatable=1;deletable=1;editable=1;locked=0;connectable=1;strokeColor=#FFFFFF;" vertex="1" parent="M4jZRAMzwR4Ym-2Xzj8O-217">
          <mxGeometry width="20" height="20" as="geometry" />
        </mxCell>
        <mxCell id="M4jZRAMzwR4Ym-2Xzj8O-219" value="" style="shape=waypoint;fillStyle=solid;size=3;movable=1;resizable=1;rotatable=1;deletable=1;editable=1;locked=0;connectable=1;" vertex="1" parent="M4jZRAMzwR4Ym-2Xzj8O-217">
          <mxGeometry x="5" width="20" height="20" as="geometry" />
        </mxCell>
        <mxCell id="M4jZRAMzwR4Ym-2Xzj8O-220" value="" style="shape=waypoint;fillStyle=solid;size=3;movable=1;resizable=1;rotatable=1;deletable=1;editable=1;locked=0;connectable=1;" vertex="1" parent="M4jZRAMzwR4Ym-2Xzj8O-217">
          <mxGeometry x="15" width="20" height="20" as="geometry" />
        </mxCell>
        <mxCell id="M4jZRAMzwR4Ym-2Xzj8O-221" value="" style="shape=waypoint;fillStyle=solid;size=3;movable=1;resizable=1;rotatable=1;deletable=1;editable=1;locked=0;connectable=1;" vertex="1" parent="M4jZRAMzwR4Ym-2Xzj8O-217">
          <mxGeometry x="10" width="20" height="20" as="geometry" />
        </mxCell>
        <mxCell id="M4jZRAMzwR4Ym-2Xzj8O-246" value="" style="group" vertex="1" connectable="0" parent="1">
          <mxGeometry x="180" y="100" width="100" height="40" as="geometry" />
        </mxCell>
        <mxCell id="M4jZRAMzwR4Ym-2Xzj8O-275" value="" style="group" vertex="1" connectable="0" parent="M4jZRAMzwR4Ym-2Xzj8O-246">
          <mxGeometry width="100" height="40" as="geometry" />
        </mxCell>
        <mxCell id="M4jZRAMzwR4Ym-2Xzj8O-28" value="" style="rounded=1;whiteSpace=wrap;html=1;rotation=0;fillColor=#CCCCCC;" vertex="1" parent="M4jZRAMzwR4Ym-2Xzj8O-275">
          <mxGeometry width="100" height="40" as="geometry" />
        </mxCell>
        <mxCell id="M4jZRAMzwR4Ym-2Xzj8O-164" value="" style="group" vertex="1" connectable="0" parent="M4jZRAMzwR4Ym-2Xzj8O-275">
          <mxGeometry x="60" y="20" width="35" height="20" as="geometry" />
        </mxCell>
        <mxCell id="M4jZRAMzwR4Ym-2Xzj8O-165" value="" style="shape=waypoint;fillStyle=solid;size=3;movable=1;resizable=1;rotatable=1;deletable=1;editable=1;locked=0;connectable=1;fillColor=default;strokeColor=#FFFFFF;" vertex="1" parent="M4jZRAMzwR4Ym-2Xzj8O-164">
          <mxGeometry width="20" height="20" as="geometry" />
        </mxCell>
        <mxCell id="M4jZRAMzwR4Ym-2Xzj8O-166" value="" style="shape=waypoint;fillStyle=solid;size=3;movable=1;resizable=1;rotatable=1;deletable=1;editable=1;locked=0;connectable=1;strokeColor=#FFFFFF;" vertex="1" parent="M4jZRAMzwR4Ym-2Xzj8O-164">
          <mxGeometry x="5" width="20" height="20" as="geometry" />
        </mxCell>
        <mxCell id="M4jZRAMzwR4Ym-2Xzj8O-167" value="" style="shape=waypoint;fillStyle=solid;size=3;movable=1;resizable=1;rotatable=1;deletable=1;editable=1;locked=0;connectable=1;" vertex="1" parent="M4jZRAMzwR4Ym-2Xzj8O-164">
          <mxGeometry x="15" width="20" height="20" as="geometry" />
        </mxCell>
        <mxCell id="M4jZRAMzwR4Ym-2Xzj8O-168" value="" style="shape=waypoint;fillStyle=solid;size=3;movable=1;resizable=1;rotatable=1;deletable=1;editable=1;locked=0;connectable=1;" vertex="1" parent="M4jZRAMzwR4Ym-2Xzj8O-164">
          <mxGeometry x="10" width="20" height="20" as="geometry" />
        </mxCell>
        <mxCell id="M4jZRAMzwR4Ym-2Xzj8O-281" value="" style="group;allowArrows=0;dropTarget=0;recursiveResize=0;expand=0;resizable=0;rotatable=0;" vertex="1" connectable="0" parent="1">
          <mxGeometry x="380" y="200" width="35" height="20" as="geometry" />
        </mxCell>
        <mxCell id="M4jZRAMzwR4Ym-2Xzj8O-282" value="" style="shape=waypoint;fillStyle=solid;size=3;movable=1;resizable=1;rotatable=1;deletable=1;editable=1;locked=0;connectable=1;" vertex="1" parent="M4jZRAMzwR4Ym-2Xzj8O-281">
          <mxGeometry width="20" height="20" as="geometry" />
        </mxCell>
        <mxCell id="M4jZRAMzwR4Ym-2Xzj8O-283" value="" style="shape=waypoint;fillStyle=solid;size=3;movable=1;resizable=1;rotatable=1;deletable=1;editable=1;locked=0;connectable=1;" vertex="1" parent="M4jZRAMzwR4Ym-2Xzj8O-281">
          <mxGeometry x="5" width="20" height="20" as="geometry" />
        </mxCell>
        <mxCell id="M4jZRAMzwR4Ym-2Xzj8O-284" value="" style="shape=waypoint;fillStyle=solid;size=3;movable=1;resizable=1;rotatable=1;deletable=1;editable=1;locked=0;connectable=1;" vertex="1" parent="M4jZRAMzwR4Ym-2Xzj8O-281">
          <mxGeometry x="15" width="20" height="20" as="geometry" />
        </mxCell>
        <mxCell id="M4jZRAMzwR4Ym-2Xzj8O-285" value="" style="shape=waypoint;fillStyle=solid;size=3;movable=1;resizable=1;rotatable=1;deletable=1;editable=1;locked=0;connectable=1;" vertex="1" parent="M4jZRAMzwR4Ym-2Xzj8O-281">
          <mxGeometry x="10" width="20" height="20" as="geometry" />
        </mxCell>
        <mxCell id="M4jZRAMzwR4Ym-2Xzj8O-286" value="" style="group" vertex="1" connectable="0" parent="1">
          <mxGeometry x="380" y="280" width="35" height="20" as="geometry" />
        </mxCell>
        <mxCell id="M4jZRAMzwR4Ym-2Xzj8O-287" value="" style="shape=waypoint;fillStyle=solid;size=3;movable=1;resizable=1;rotatable=1;deletable=1;editable=1;locked=0;connectable=1;" vertex="1" parent="M4jZRAMzwR4Ym-2Xzj8O-286">
          <mxGeometry width="20" height="20" as="geometry" />
        </mxCell>
        <mxCell id="M4jZRAMzwR4Ym-2Xzj8O-288" value="" style="shape=waypoint;fillStyle=solid;size=3;movable=1;resizable=1;rotatable=1;deletable=1;editable=1;locked=0;connectable=1;" vertex="1" parent="M4jZRAMzwR4Ym-2Xzj8O-286">
          <mxGeometry x="5" width="20" height="20" as="geometry" />
        </mxCell>
        <mxCell id="M4jZRAMzwR4Ym-2Xzj8O-289" value="" style="shape=waypoint;fillStyle=solid;size=3;movable=1;resizable=1;rotatable=1;deletable=1;editable=1;locked=0;connectable=1;" vertex="1" parent="M4jZRAMzwR4Ym-2Xzj8O-286">
          <mxGeometry x="15" width="20" height="20" as="geometry" />
        </mxCell>
        <mxCell id="M4jZRAMzwR4Ym-2Xzj8O-290" value="" style="shape=waypoint;fillStyle=solid;size=3;movable=1;resizable=1;rotatable=1;deletable=1;editable=1;locked=0;connectable=1;" vertex="1" parent="M4jZRAMzwR4Ym-2Xzj8O-286">
          <mxGeometry x="10" width="20" height="20" as="geometry" />
        </mxCell>
        <mxCell id="M4jZRAMzwR4Ym-2Xzj8O-291" value="" style="group" vertex="1" connectable="0" parent="1">
          <mxGeometry x="380" y="360" width="35" height="20" as="geometry" />
        </mxCell>
        <mxCell id="M4jZRAMzwR4Ym-2Xzj8O-292" value="" style="shape=waypoint;fillStyle=solid;size=3;movable=1;resizable=1;rotatable=1;deletable=1;editable=1;locked=0;connectable=1;" vertex="1" parent="M4jZRAMzwR4Ym-2Xzj8O-291">
          <mxGeometry width="20" height="20" as="geometry" />
        </mxCell>
        <mxCell id="M4jZRAMzwR4Ym-2Xzj8O-293" value="" style="shape=waypoint;fillStyle=solid;size=3;movable=1;resizable=1;rotatable=1;deletable=1;editable=1;locked=0;connectable=1;" vertex="1" parent="M4jZRAMzwR4Ym-2Xzj8O-291">
          <mxGeometry x="5" width="20" height="20" as="geometry" />
        </mxCell>
        <mxCell id="M4jZRAMzwR4Ym-2Xzj8O-294" value="" style="shape=waypoint;fillStyle=solid;size=3;movable=1;resizable=1;rotatable=1;deletable=1;editable=1;locked=0;connectable=1;" vertex="1" parent="M4jZRAMzwR4Ym-2Xzj8O-291">
          <mxGeometry x="15" width="20" height="20" as="geometry" />
        </mxCell>
        <mxCell id="M4jZRAMzwR4Ym-2Xzj8O-295" value="" style="shape=waypoint;fillStyle=solid;size=3;movable=1;resizable=1;rotatable=1;deletable=1;editable=1;locked=0;connectable=1;" vertex="1" parent="M4jZRAMzwR4Ym-2Xzj8O-291">
          <mxGeometry x="10" width="20" height="20" as="geometry" />
        </mxCell>
        <mxCell id="M4jZRAMzwR4Ym-2Xzj8O-296" value="" style="group" vertex="1" connectable="0" parent="1">
          <mxGeometry x="380" y="440" width="35" height="20" as="geometry" />
        </mxCell>
        <mxCell id="M4jZRAMzwR4Ym-2Xzj8O-297" value="" style="shape=waypoint;fillStyle=solid;size=3;movable=1;resizable=1;rotatable=1;deletable=1;editable=1;locked=0;connectable=1;" vertex="1" parent="M4jZRAMzwR4Ym-2Xzj8O-296">
          <mxGeometry width="20" height="20" as="geometry" />
        </mxCell>
        <mxCell id="M4jZRAMzwR4Ym-2Xzj8O-298" value="" style="shape=waypoint;fillStyle=solid;size=3;movable=1;resizable=1;rotatable=1;deletable=1;editable=1;locked=0;connectable=1;" vertex="1" parent="M4jZRAMzwR4Ym-2Xzj8O-296">
          <mxGeometry x="5" width="20" height="20" as="geometry" />
        </mxCell>
        <mxCell id="M4jZRAMzwR4Ym-2Xzj8O-299" value="" style="shape=waypoint;fillStyle=solid;size=3;movable=1;resizable=1;rotatable=1;deletable=1;editable=1;locked=0;connectable=1;" vertex="1" parent="M4jZRAMzwR4Ym-2Xzj8O-296">
          <mxGeometry x="15" width="20" height="20" as="geometry" />
        </mxCell>
        <mxCell id="M4jZRAMzwR4Ym-2Xzj8O-300" value="" style="shape=waypoint;fillStyle=solid;size=3;movable=1;resizable=1;rotatable=1;deletable=1;editable=1;locked=0;connectable=1;" vertex="1" parent="M4jZRAMzwR4Ym-2Xzj8O-296">
          <mxGeometry x="10" width="20" height="20" as="geometry" />
        </mxCell>
        <mxCell id="M4jZRAMzwR4Ym-2Xzj8O-301" value="" style="group" vertex="1" connectable="0" parent="1">
          <mxGeometry x="520" y="440" width="35" height="20" as="geometry" />
        </mxCell>
        <mxCell id="M4jZRAMzwR4Ym-2Xzj8O-302" value="" style="shape=waypoint;fillStyle=solid;size=3;movable=1;resizable=1;rotatable=1;deletable=1;editable=1;locked=0;connectable=1;" vertex="1" parent="M4jZRAMzwR4Ym-2Xzj8O-301">
          <mxGeometry width="20" height="20" as="geometry" />
        </mxCell>
        <mxCell id="M4jZRAMzwR4Ym-2Xzj8O-303" value="" style="shape=waypoint;fillStyle=solid;size=3;movable=1;resizable=1;rotatable=1;deletable=1;editable=1;locked=0;connectable=1;" vertex="1" parent="M4jZRAMzwR4Ym-2Xzj8O-301">
          <mxGeometry x="5" width="20" height="20" as="geometry" />
        </mxCell>
        <mxCell id="M4jZRAMzwR4Ym-2Xzj8O-304" value="" style="shape=waypoint;fillStyle=solid;size=3;movable=1;resizable=1;rotatable=1;deletable=1;editable=1;locked=0;connectable=1;" vertex="1" parent="M4jZRAMzwR4Ym-2Xzj8O-301">
          <mxGeometry x="15" width="20" height="20" as="geometry" />
        </mxCell>
        <mxCell id="M4jZRAMzwR4Ym-2Xzj8O-305" value="" style="shape=waypoint;fillStyle=solid;size=3;movable=1;resizable=1;rotatable=1;deletable=1;editable=1;locked=0;connectable=1;" vertex="1" parent="M4jZRAMzwR4Ym-2Xzj8O-301">
          <mxGeometry x="10" width="20" height="20" as="geometry" />
        </mxCell>
        <mxCell id="M4jZRAMzwR4Ym-2Xzj8O-312" value="" style="group" vertex="1" connectable="0" parent="1">
          <mxGeometry x="240" y="280" width="35" height="20" as="geometry" />
        </mxCell>
        <mxCell id="M4jZRAMzwR4Ym-2Xzj8O-313" value="" style="shape=waypoint;fillStyle=solid;size=3;movable=1;resizable=1;rotatable=1;deletable=1;editable=1;locked=0;connectable=1;" vertex="1" parent="M4jZRAMzwR4Ym-2Xzj8O-312">
          <mxGeometry width="20" height="20" as="geometry" />
        </mxCell>
        <mxCell id="M4jZRAMzwR4Ym-2Xzj8O-314" value="" style="shape=waypoint;fillStyle=solid;size=3;movable=1;resizable=1;rotatable=1;deletable=1;editable=1;locked=0;connectable=1;" vertex="1" parent="M4jZRAMzwR4Ym-2Xzj8O-312">
          <mxGeometry x="5" width="20" height="20" as="geometry" />
        </mxCell>
        <mxCell id="M4jZRAMzwR4Ym-2Xzj8O-315" value="" style="shape=waypoint;fillStyle=solid;size=3;movable=1;resizable=1;rotatable=1;deletable=1;editable=1;locked=0;connectable=1;" vertex="1" parent="M4jZRAMzwR4Ym-2Xzj8O-312">
          <mxGeometry x="15" width="20" height="20" as="geometry" />
        </mxCell>
        <mxCell id="M4jZRAMzwR4Ym-2Xzj8O-316" value="" style="shape=waypoint;fillStyle=solid;size=3;movable=1;resizable=1;rotatable=1;deletable=1;editable=1;locked=0;connectable=1;" vertex="1" parent="M4jZRAMzwR4Ym-2Xzj8O-312">
          <mxGeometry x="10" width="20" height="20" as="geometry" />
        </mxCell>
        <mxCell id="M4jZRAMzwR4Ym-2Xzj8O-317" value="" style="group" vertex="1" connectable="0" parent="1">
          <mxGeometry x="240" y="400" width="35" height="20" as="geometry" />
        </mxCell>
        <mxCell id="M4jZRAMzwR4Ym-2Xzj8O-318" value="" style="shape=waypoint;fillStyle=solid;size=3;movable=1;resizable=1;rotatable=1;deletable=1;editable=1;locked=0;connectable=1;" vertex="1" parent="M4jZRAMzwR4Ym-2Xzj8O-317">
          <mxGeometry width="20" height="20" as="geometry" />
        </mxCell>
        <mxCell id="M4jZRAMzwR4Ym-2Xzj8O-319" value="" style="shape=waypoint;fillStyle=solid;size=3;movable=1;resizable=1;rotatable=1;deletable=1;editable=1;locked=0;connectable=1;" vertex="1" parent="M4jZRAMzwR4Ym-2Xzj8O-317">
          <mxGeometry x="5" width="20" height="20" as="geometry" />
        </mxCell>
        <mxCell id="M4jZRAMzwR4Ym-2Xzj8O-320" value="" style="shape=waypoint;fillStyle=solid;size=3;movable=1;resizable=1;rotatable=1;deletable=1;editable=1;locked=0;connectable=1;" vertex="1" parent="M4jZRAMzwR4Ym-2Xzj8O-317">
          <mxGeometry x="15" width="20" height="20" as="geometry" />
        </mxCell>
        <mxCell id="M4jZRAMzwR4Ym-2Xzj8O-321" value="" style="shape=waypoint;fillStyle=solid;size=3;movable=1;resizable=1;rotatable=1;deletable=1;editable=1;locked=0;connectable=1;" vertex="1" parent="M4jZRAMzwR4Ym-2Xzj8O-317">
          <mxGeometry x="10" width="20" height="20" as="geometry" />
        </mxCell>
        <mxCell id="M4jZRAMzwR4Ym-2Xzj8O-322" value="" style="group" vertex="1" connectable="0" parent="1">
          <mxGeometry x="100" y="340" width="35" height="20" as="geometry" />
        </mxCell>
        <mxCell id="M4jZRAMzwR4Ym-2Xzj8O-323" value="" style="shape=waypoint;fillStyle=solid;size=3;movable=1;resizable=1;rotatable=1;deletable=1;editable=1;locked=0;connectable=1;" vertex="1" parent="M4jZRAMzwR4Ym-2Xzj8O-322">
          <mxGeometry width="20" height="20" as="geometry" />
        </mxCell>
        <mxCell id="M4jZRAMzwR4Ym-2Xzj8O-324" value="" style="shape=waypoint;fillStyle=solid;size=3;movable=1;resizable=1;rotatable=1;deletable=1;editable=1;locked=0;connectable=1;" vertex="1" parent="M4jZRAMzwR4Ym-2Xzj8O-322">
          <mxGeometry x="5" width="20" height="20" as="geometry" />
        </mxCell>
        <mxCell id="M4jZRAMzwR4Ym-2Xzj8O-325" value="" style="shape=waypoint;fillStyle=solid;size=3;movable=1;resizable=1;rotatable=1;deletable=1;editable=1;locked=0;connectable=1;" vertex="1" parent="M4jZRAMzwR4Ym-2Xzj8O-322">
          <mxGeometry x="15" width="20" height="20" as="geometry" />
        </mxCell>
        <mxCell id="M4jZRAMzwR4Ym-2Xzj8O-326" value="" style="shape=waypoint;fillStyle=solid;size=3;movable=1;resizable=1;rotatable=1;deletable=1;editable=1;locked=0;connectable=1;" vertex="1" parent="M4jZRAMzwR4Ym-2Xzj8O-322">
          <mxGeometry x="10" width="20" height="20" as="geometry" />
        </mxCell>
        <mxCell id="M4jZRAMzwR4Ym-2Xzj8O-332" value="" style="group;allowArrows=0;dropTarget=0;recursiveResize=0;expand=0;resizable=0;rotatable=0;" vertex="1" connectable="0" parent="1">
          <mxGeometry x="380" y="520" width="35" height="20" as="geometry" />
        </mxCell>
        <mxCell id="M4jZRAMzwR4Ym-2Xzj8O-333" value="" style="shape=waypoint;fillStyle=solid;size=3;movable=1;resizable=1;rotatable=1;deletable=1;editable=1;locked=0;connectable=1;" vertex="1" parent="M4jZRAMzwR4Ym-2Xzj8O-332">
          <mxGeometry width="20" height="20" as="geometry" />
        </mxCell>
        <mxCell id="M4jZRAMzwR4Ym-2Xzj8O-334" value="" style="shape=waypoint;fillStyle=solid;size=3;movable=1;resizable=1;rotatable=1;deletable=1;editable=1;locked=0;connectable=1;" vertex="1" parent="M4jZRAMzwR4Ym-2Xzj8O-332">
          <mxGeometry x="5" width="20" height="20" as="geometry" />
        </mxCell>
        <mxCell id="M4jZRAMzwR4Ym-2Xzj8O-335" value="" style="shape=waypoint;fillStyle=solid;size=3;movable=1;resizable=1;rotatable=1;deletable=1;editable=1;locked=0;connectable=1;" vertex="1" parent="M4jZRAMzwR4Ym-2Xzj8O-332">
          <mxGeometry x="15" width="20" height="20" as="geometry" />
        </mxCell>
        <mxCell id="M4jZRAMzwR4Ym-2Xzj8O-336" value="" style="shape=waypoint;fillStyle=solid;size=3;movable=1;resizable=1;rotatable=1;deletable=1;editable=1;locked=0;connectable=1;" vertex="1" parent="M4jZRAMzwR4Ym-2Xzj8O-332">
          <mxGeometry x="10" width="20" height="20" as="geometry" />
        </mxCell>
        <mxCell id="M4jZRAMzwR4Ym-2Xzj8O-354" value="" style="group;allowArrows=0;dropTarget=0;recursiveResize=0;expand=0;resizable=0;rotatable=0;" vertex="1" connectable="0" parent="1">
          <mxGeometry x="380" y="600" width="35" height="20" as="geometry" />
        </mxCell>
        <mxCell id="M4jZRAMzwR4Ym-2Xzj8O-355" value="" style="shape=waypoint;fillStyle=solid;size=3;movable=1;resizable=1;rotatable=1;deletable=1;editable=1;locked=0;connectable=1;" vertex="1" parent="M4jZRAMzwR4Ym-2Xzj8O-354">
          <mxGeometry width="20" height="20" as="geometry" />
        </mxCell>
        <mxCell id="M4jZRAMzwR4Ym-2Xzj8O-356" value="" style="shape=waypoint;fillStyle=solid;size=3;movable=1;resizable=1;rotatable=1;deletable=1;editable=1;locked=0;connectable=1;" vertex="1" parent="M4jZRAMzwR4Ym-2Xzj8O-354">
          <mxGeometry x="5" width="20" height="20" as="geometry" />
        </mxCell>
        <mxCell id="M4jZRAMzwR4Ym-2Xzj8O-357" value="" style="shape=waypoint;fillStyle=solid;size=3;movable=1;resizable=1;rotatable=1;deletable=1;editable=1;locked=0;connectable=1;" vertex="1" parent="M4jZRAMzwR4Ym-2Xzj8O-354">
          <mxGeometry x="15" width="20" height="20" as="geometry" />
        </mxCell>
        <mxCell id="M4jZRAMzwR4Ym-2Xzj8O-358" value="" style="shape=waypoint;fillStyle=solid;size=3;movable=1;resizable=1;rotatable=1;deletable=1;editable=1;locked=0;connectable=1;" vertex="1" parent="M4jZRAMzwR4Ym-2Xzj8O-354">
          <mxGeometry x="10" width="20" height="20" as="geometry" />
        </mxCell>
        <mxCell id="M4jZRAMzwR4Ym-2Xzj8O-359" value="" style="group;allowArrows=0;dropTarget=0;recursiveResize=0;expand=0;resizable=0;rotatable=0;" vertex="1" connectable="0" parent="1">
          <mxGeometry x="380" y="680" width="35" height="20" as="geometry" />
        </mxCell>
        <mxCell id="M4jZRAMzwR4Ym-2Xzj8O-360" value="" style="shape=waypoint;fillStyle=solid;size=3;movable=1;resizable=1;rotatable=1;deletable=1;editable=1;locked=0;connectable=1;" vertex="1" parent="M4jZRAMzwR4Ym-2Xzj8O-359">
          <mxGeometry width="20" height="20" as="geometry" />
        </mxCell>
        <mxCell id="M4jZRAMzwR4Ym-2Xzj8O-361" value="" style="shape=waypoint;fillStyle=solid;size=3;movable=1;resizable=1;rotatable=1;deletable=1;editable=1;locked=0;connectable=1;" vertex="1" parent="M4jZRAMzwR4Ym-2Xzj8O-359">
          <mxGeometry x="5" width="20" height="20" as="geometry" />
        </mxCell>
        <mxCell id="M4jZRAMzwR4Ym-2Xzj8O-362" value="" style="shape=waypoint;fillStyle=solid;size=3;movable=1;resizable=1;rotatable=1;deletable=1;editable=1;locked=0;connectable=1;" vertex="1" parent="M4jZRAMzwR4Ym-2Xzj8O-359">
          <mxGeometry x="15" width="20" height="20" as="geometry" />
        </mxCell>
        <mxCell id="M4jZRAMzwR4Ym-2Xzj8O-363" value="" style="shape=waypoint;fillStyle=solid;size=3;movable=1;resizable=1;rotatable=1;deletable=1;editable=1;locked=0;connectable=1;" vertex="1" parent="M4jZRAMzwR4Ym-2Xzj8O-359">
          <mxGeometry x="10" width="20" height="20" as="geometry" />
        </mxCell>
        <mxCell id="M4jZRAMzwR4Ym-2Xzj8O-364" value="" style="group;allowArrows=0;dropTarget=0;recursiveResize=0;expand=0;resizable=0;rotatable=0;" vertex="1" connectable="0" parent="1">
          <mxGeometry x="240" y="680" width="35" height="20" as="geometry" />
        </mxCell>
        <mxCell id="M4jZRAMzwR4Ym-2Xzj8O-365" value="" style="shape=waypoint;fillStyle=solid;size=3;movable=1;resizable=1;rotatable=1;deletable=1;editable=1;locked=0;connectable=1;" vertex="1" parent="M4jZRAMzwR4Ym-2Xzj8O-364">
          <mxGeometry width="20" height="20" as="geometry" />
        </mxCell>
        <mxCell id="M4jZRAMzwR4Ym-2Xzj8O-366" value="" style="shape=waypoint;fillStyle=solid;size=3;movable=1;resizable=1;rotatable=1;deletable=1;editable=1;locked=0;connectable=1;" vertex="1" parent="M4jZRAMzwR4Ym-2Xzj8O-364">
          <mxGeometry x="5" width="20" height="20" as="geometry" />
        </mxCell>
        <mxCell id="M4jZRAMzwR4Ym-2Xzj8O-367" value="" style="shape=waypoint;fillStyle=solid;size=3;movable=1;resizable=1;rotatable=1;deletable=1;editable=1;locked=0;connectable=1;" vertex="1" parent="M4jZRAMzwR4Ym-2Xzj8O-364">
          <mxGeometry x="15" width="20" height="20" as="geometry" />
        </mxCell>
        <mxCell id="M4jZRAMzwR4Ym-2Xzj8O-368" value="" style="shape=waypoint;fillStyle=solid;size=3;movable=1;resizable=1;rotatable=1;deletable=1;editable=1;locked=0;connectable=1;" vertex="1" parent="M4jZRAMzwR4Ym-2Xzj8O-364">
          <mxGeometry x="10" width="20" height="20" as="geometry" />
        </mxCell>
        <mxCell id="M4jZRAMzwR4Ym-2Xzj8O-369" value="" style="group;allowArrows=0;dropTarget=0;recursiveResize=0;expand=0;resizable=0;rotatable=0;" vertex="1" connectable="0" parent="1">
          <mxGeometry x="240" y="600" width="35" height="20" as="geometry" />
        </mxCell>
        <mxCell id="M4jZRAMzwR4Ym-2Xzj8O-370" value="" style="shape=waypoint;fillStyle=solid;size=3;movable=1;resizable=1;rotatable=1;deletable=1;editable=1;locked=0;connectable=1;" vertex="1" parent="M4jZRAMzwR4Ym-2Xzj8O-369">
          <mxGeometry width="20" height="20" as="geometry" />
        </mxCell>
        <mxCell id="M4jZRAMzwR4Ym-2Xzj8O-371" value="" style="shape=waypoint;fillStyle=solid;size=3;movable=1;resizable=1;rotatable=1;deletable=1;editable=1;locked=0;connectable=1;" vertex="1" parent="M4jZRAMzwR4Ym-2Xzj8O-369">
          <mxGeometry x="5" width="20" height="20" as="geometry" />
        </mxCell>
        <mxCell id="M4jZRAMzwR4Ym-2Xzj8O-372" value="" style="shape=waypoint;fillStyle=solid;size=3;movable=1;resizable=1;rotatable=1;deletable=1;editable=1;locked=0;connectable=1;" vertex="1" parent="M4jZRAMzwR4Ym-2Xzj8O-369">
          <mxGeometry x="15" width="20" height="20" as="geometry" />
        </mxCell>
        <mxCell id="M4jZRAMzwR4Ym-2Xzj8O-373" value="" style="shape=waypoint;fillStyle=solid;size=3;movable=1;resizable=1;rotatable=1;deletable=1;editable=1;locked=0;connectable=1;" vertex="1" parent="M4jZRAMzwR4Ym-2Xzj8O-369">
          <mxGeometry x="10" width="20" height="20" as="geometry" />
        </mxCell>
        <mxCell id="M4jZRAMzwR4Ym-2Xzj8O-374" value="" style="group;allowArrows=0;dropTarget=0;recursiveResize=0;expand=0;resizable=0;rotatable=0;" vertex="1" connectable="0" parent="1">
          <mxGeometry x="100" y="600" width="35" height="20" as="geometry" />
        </mxCell>
        <mxCell id="M4jZRAMzwR4Ym-2Xzj8O-375" value="" style="shape=waypoint;fillStyle=solid;size=3;movable=1;resizable=1;rotatable=1;deletable=1;editable=1;locked=0;connectable=1;" vertex="1" parent="M4jZRAMzwR4Ym-2Xzj8O-374">
          <mxGeometry width="20" height="20" as="geometry" />
        </mxCell>
        <mxCell id="M4jZRAMzwR4Ym-2Xzj8O-376" value="" style="shape=waypoint;fillStyle=solid;size=3;movable=1;resizable=1;rotatable=1;deletable=1;editable=1;locked=0;connectable=1;" vertex="1" parent="M4jZRAMzwR4Ym-2Xzj8O-374">
          <mxGeometry x="5" width="20" height="20" as="geometry" />
        </mxCell>
        <mxCell id="M4jZRAMzwR4Ym-2Xzj8O-377" value="" style="shape=waypoint;fillStyle=solid;size=3;movable=1;resizable=1;rotatable=1;deletable=1;editable=1;locked=0;connectable=1;" vertex="1" parent="M4jZRAMzwR4Ym-2Xzj8O-374">
          <mxGeometry x="15" width="20" height="20" as="geometry" />
        </mxCell>
        <mxCell id="M4jZRAMzwR4Ym-2Xzj8O-378" value="" style="shape=waypoint;fillStyle=solid;size=3;movable=1;resizable=1;rotatable=1;deletable=1;editable=1;locked=0;connectable=1;" vertex="1" parent="M4jZRAMzwR4Ym-2Xzj8O-374">
          <mxGeometry x="10" width="20" height="20" as="geometry" />
        </mxCell>
        <mxCell id="M4jZRAMzwR4Ym-2Xzj8O-379" value="" style="group;allowArrows=0;dropTarget=0;recursiveResize=0;expand=0;resizable=0;rotatable=0;" vertex="1" connectable="0" parent="1">
          <mxGeometry x="240" y="520" width="35" height="20" as="geometry" />
        </mxCell>
        <mxCell id="M4jZRAMzwR4Ym-2Xzj8O-380" value="" style="shape=waypoint;fillStyle=solid;size=3;movable=1;resizable=1;rotatable=1;deletable=1;editable=1;locked=0;connectable=1;" vertex="1" parent="M4jZRAMzwR4Ym-2Xzj8O-379">
          <mxGeometry width="20" height="20" as="geometry" />
        </mxCell>
        <mxCell id="M4jZRAMzwR4Ym-2Xzj8O-381" value="" style="shape=waypoint;fillStyle=solid;size=3;movable=1;resizable=1;rotatable=1;deletable=1;editable=1;locked=0;connectable=1;" vertex="1" parent="M4jZRAMzwR4Ym-2Xzj8O-379">
          <mxGeometry x="5" width="20" height="20" as="geometry" />
        </mxCell>
        <mxCell id="M4jZRAMzwR4Ym-2Xzj8O-382" value="" style="shape=waypoint;fillStyle=solid;size=3;movable=1;resizable=1;rotatable=1;deletable=1;editable=1;locked=0;connectable=1;" vertex="1" parent="M4jZRAMzwR4Ym-2Xzj8O-379">
          <mxGeometry x="15" width="20" height="20" as="geometry" />
        </mxCell>
        <mxCell id="M4jZRAMzwR4Ym-2Xzj8O-383" value="" style="shape=waypoint;fillStyle=solid;size=3;movable=1;resizable=1;rotatable=1;deletable=1;editable=1;locked=0;connectable=1;" vertex="1" parent="M4jZRAMzwR4Ym-2Xzj8O-379">
          <mxGeometry x="10" width="20" height="20" as="geometry" />
        </mxCell>
        <mxCell id="M4jZRAMzwR4Ym-2Xzj8O-384" value="" style="group;allowArrows=0;dropTarget=0;recursiveResize=0;expand=0;resizable=0;rotatable=0;" vertex="1" connectable="0" parent="1">
          <mxGeometry x="100" y="880" width="35" height="20" as="geometry" />
        </mxCell>
        <mxCell id="M4jZRAMzwR4Ym-2Xzj8O-385" value="" style="shape=waypoint;fillStyle=solid;size=3;movable=1;resizable=1;rotatable=1;deletable=1;editable=1;locked=0;connectable=1;" vertex="1" parent="M4jZRAMzwR4Ym-2Xzj8O-384">
          <mxGeometry width="20" height="20" as="geometry" />
        </mxCell>
        <mxCell id="M4jZRAMzwR4Ym-2Xzj8O-386" value="" style="shape=waypoint;fillStyle=solid;size=3;movable=1;resizable=1;rotatable=1;deletable=1;editable=1;locked=0;connectable=1;" vertex="1" parent="M4jZRAMzwR4Ym-2Xzj8O-384">
          <mxGeometry x="5" width="20" height="20" as="geometry" />
        </mxCell>
        <mxCell id="M4jZRAMzwR4Ym-2Xzj8O-387" value="" style="shape=waypoint;fillStyle=solid;size=3;movable=1;resizable=1;rotatable=1;deletable=1;editable=1;locked=0;connectable=1;" vertex="1" parent="M4jZRAMzwR4Ym-2Xzj8O-384">
          <mxGeometry x="15" width="20" height="20" as="geometry" />
        </mxCell>
        <mxCell id="M4jZRAMzwR4Ym-2Xzj8O-388" value="" style="shape=waypoint;fillStyle=solid;size=3;movable=1;resizable=1;rotatable=1;deletable=1;editable=1;locked=0;connectable=1;" vertex="1" parent="M4jZRAMzwR4Ym-2Xzj8O-384">
          <mxGeometry x="10" width="20" height="20" as="geometry" />
        </mxCell>
        <mxCell id="M4jZRAMzwR4Ym-2Xzj8O-389" value="" style="group;allowArrows=0;dropTarget=0;recursiveResize=0;expand=0;resizable=0;rotatable=0;" vertex="1" connectable="0" parent="1">
          <mxGeometry x="240" y="760" width="35" height="20" as="geometry" />
        </mxCell>
        <mxCell id="M4jZRAMzwR4Ym-2Xzj8O-390" value="" style="shape=waypoint;fillStyle=solid;size=3;movable=1;resizable=1;rotatable=1;deletable=1;editable=1;locked=0;connectable=1;" vertex="1" parent="M4jZRAMzwR4Ym-2Xzj8O-389">
          <mxGeometry width="20" height="20" as="geometry" />
        </mxCell>
        <mxCell id="M4jZRAMzwR4Ym-2Xzj8O-391" value="" style="shape=waypoint;fillStyle=solid;size=3;movable=1;resizable=1;rotatable=1;deletable=1;editable=1;locked=0;connectable=1;" vertex="1" parent="M4jZRAMzwR4Ym-2Xzj8O-389">
          <mxGeometry x="5" width="20" height="20" as="geometry" />
        </mxCell>
        <mxCell id="M4jZRAMzwR4Ym-2Xzj8O-392" value="" style="shape=waypoint;fillStyle=solid;size=3;movable=1;resizable=1;rotatable=1;deletable=1;editable=1;locked=0;connectable=1;" vertex="1" parent="M4jZRAMzwR4Ym-2Xzj8O-389">
          <mxGeometry x="15" width="20" height="20" as="geometry" />
        </mxCell>
        <mxCell id="M4jZRAMzwR4Ym-2Xzj8O-393" value="" style="shape=waypoint;fillStyle=solid;size=3;movable=1;resizable=1;rotatable=1;deletable=1;editable=1;locked=0;connectable=1;" vertex="1" parent="M4jZRAMzwR4Ym-2Xzj8O-389">
          <mxGeometry x="10" width="20" height="20" as="geometry" />
        </mxCell>
        <mxCell id="M4jZRAMzwR4Ym-2Xzj8O-394" value="" style="group;allowArrows=0;dropTarget=0;recursiveResize=0;expand=0;resizable=0;rotatable=0;" vertex="1" connectable="0" parent="1">
          <mxGeometry x="240" y="840" width="35" height="20" as="geometry" />
        </mxCell>
        <mxCell id="M4jZRAMzwR4Ym-2Xzj8O-395" value="" style="shape=waypoint;fillStyle=solid;size=3;movable=1;resizable=1;rotatable=1;deletable=1;editable=1;locked=0;connectable=1;" vertex="1" parent="M4jZRAMzwR4Ym-2Xzj8O-394">
          <mxGeometry width="20" height="20" as="geometry" />
        </mxCell>
        <mxCell id="M4jZRAMzwR4Ym-2Xzj8O-396" value="" style="shape=waypoint;fillStyle=solid;size=3;movable=1;resizable=1;rotatable=1;deletable=1;editable=1;locked=0;connectable=1;" vertex="1" parent="M4jZRAMzwR4Ym-2Xzj8O-394">
          <mxGeometry x="5" width="20" height="20" as="geometry" />
        </mxCell>
        <mxCell id="M4jZRAMzwR4Ym-2Xzj8O-397" value="" style="shape=waypoint;fillStyle=solid;size=3;movable=1;resizable=1;rotatable=1;deletable=1;editable=1;locked=0;connectable=1;" vertex="1" parent="M4jZRAMzwR4Ym-2Xzj8O-394">
          <mxGeometry x="15" width="20" height="20" as="geometry" />
        </mxCell>
        <mxCell id="M4jZRAMzwR4Ym-2Xzj8O-398" value="" style="shape=waypoint;fillStyle=solid;size=3;movable=1;resizable=1;rotatable=1;deletable=1;editable=1;locked=0;connectable=1;" vertex="1" parent="M4jZRAMzwR4Ym-2Xzj8O-394">
          <mxGeometry x="10" width="20" height="20" as="geometry" />
        </mxCell>
        <mxCell id="M4jZRAMzwR4Ym-2Xzj8O-399" value="" style="group;allowArrows=0;dropTarget=0;recursiveResize=0;expand=0;resizable=0;rotatable=0;" vertex="1" connectable="0" parent="1">
          <mxGeometry x="380" y="840" width="35" height="20" as="geometry" />
        </mxCell>
        <mxCell id="M4jZRAMzwR4Ym-2Xzj8O-400" value="" style="shape=waypoint;fillStyle=solid;size=3;movable=1;resizable=1;rotatable=1;deletable=1;editable=1;locked=0;connectable=1;" vertex="1" parent="M4jZRAMzwR4Ym-2Xzj8O-399">
          <mxGeometry width="20" height="20" as="geometry" />
        </mxCell>
        <mxCell id="M4jZRAMzwR4Ym-2Xzj8O-401" value="" style="shape=waypoint;fillStyle=solid;size=3;movable=1;resizable=1;rotatable=1;deletable=1;editable=1;locked=0;connectable=1;" vertex="1" parent="M4jZRAMzwR4Ym-2Xzj8O-399">
          <mxGeometry x="5" width="20" height="20" as="geometry" />
        </mxCell>
        <mxCell id="M4jZRAMzwR4Ym-2Xzj8O-402" value="" style="shape=waypoint;fillStyle=solid;size=3;movable=1;resizable=1;rotatable=1;deletable=1;editable=1;locked=0;connectable=1;" vertex="1" parent="M4jZRAMzwR4Ym-2Xzj8O-399">
          <mxGeometry x="15" width="20" height="20" as="geometry" />
        </mxCell>
        <mxCell id="M4jZRAMzwR4Ym-2Xzj8O-403" value="" style="shape=waypoint;fillStyle=solid;size=3;movable=1;resizable=1;rotatable=1;deletable=1;editable=1;locked=0;connectable=1;" vertex="1" parent="M4jZRAMzwR4Ym-2Xzj8O-399">
          <mxGeometry x="10" width="20" height="20" as="geometry" />
        </mxCell>
        <mxCell id="M4jZRAMzwR4Ym-2Xzj8O-404" value="" style="group;allowArrows=0;dropTarget=0;recursiveResize=0;expand=0;resizable=0;rotatable=0;" vertex="1" connectable="0" parent="1">
          <mxGeometry x="380" y="920" width="35" height="20" as="geometry" />
        </mxCell>
        <mxCell id="M4jZRAMzwR4Ym-2Xzj8O-405" value="" style="shape=waypoint;fillStyle=solid;size=3;movable=1;resizable=1;rotatable=1;deletable=1;editable=1;locked=0;connectable=1;" vertex="1" parent="M4jZRAMzwR4Ym-2Xzj8O-404">
          <mxGeometry width="20" height="20" as="geometry" />
        </mxCell>
        <mxCell id="M4jZRAMzwR4Ym-2Xzj8O-406" value="" style="shape=waypoint;fillStyle=solid;size=3;movable=1;resizable=1;rotatable=1;deletable=1;editable=1;locked=0;connectable=1;" vertex="1" parent="M4jZRAMzwR4Ym-2Xzj8O-404">
          <mxGeometry x="5" width="20" height="20" as="geometry" />
        </mxCell>
        <mxCell id="M4jZRAMzwR4Ym-2Xzj8O-407" value="" style="shape=waypoint;fillStyle=solid;size=3;movable=1;resizable=1;rotatable=1;deletable=1;editable=1;locked=0;connectable=1;" vertex="1" parent="M4jZRAMzwR4Ym-2Xzj8O-404">
          <mxGeometry x="15" width="20" height="20" as="geometry" />
        </mxCell>
        <mxCell id="M4jZRAMzwR4Ym-2Xzj8O-408" value="" style="shape=waypoint;fillStyle=solid;size=3;movable=1;resizable=1;rotatable=1;deletable=1;editable=1;locked=0;connectable=1;" vertex="1" parent="M4jZRAMzwR4Ym-2Xzj8O-404">
          <mxGeometry x="10" width="20" height="20" as="geometry" />
        </mxCell>
        <mxCell id="M4jZRAMzwR4Ym-2Xzj8O-410" value="" style="group;allowArrows=0;dropTarget=0;recursiveResize=0;expand=0;resizable=0;rotatable=0;" vertex="1" connectable="0" parent="1">
          <mxGeometry x="240" y="920" width="35" height="20" as="geometry" />
        </mxCell>
        <mxCell id="M4jZRAMzwR4Ym-2Xzj8O-411" value="" style="shape=waypoint;fillStyle=solid;size=3;movable=1;resizable=1;rotatable=1;deletable=1;editable=1;locked=0;connectable=1;" vertex="1" parent="M4jZRAMzwR4Ym-2Xzj8O-410">
          <mxGeometry width="20" height="20" as="geometry" />
        </mxCell>
        <mxCell id="M4jZRAMzwR4Ym-2Xzj8O-412" value="" style="shape=waypoint;fillStyle=solid;size=3;movable=1;resizable=1;rotatable=1;deletable=1;editable=1;locked=0;connectable=1;" vertex="1" parent="M4jZRAMzwR4Ym-2Xzj8O-410">
          <mxGeometry x="5" width="20" height="20" as="geometry" />
        </mxCell>
        <mxCell id="M4jZRAMzwR4Ym-2Xzj8O-413" value="" style="shape=waypoint;fillStyle=solid;size=3;movable=1;resizable=1;rotatable=1;deletable=1;editable=1;locked=0;connectable=1;" vertex="1" parent="M4jZRAMzwR4Ym-2Xzj8O-410">
          <mxGeometry x="15" width="20" height="20" as="geometry" />
        </mxCell>
        <mxCell id="M4jZRAMzwR4Ym-2Xzj8O-414" value="" style="shape=waypoint;fillStyle=solid;size=3;movable=1;resizable=1;rotatable=1;deletable=1;editable=1;locked=0;connectable=1;" vertex="1" parent="M4jZRAMzwR4Ym-2Xzj8O-410">
          <mxGeometry x="10" width="20" height="20" as="geometry" />
        </mxCell>
        <mxCell id="M4jZRAMzwR4Ym-2Xzj8O-415" value="" style="group;allowArrows=0;dropTarget=0;recursiveResize=0;expand=0;resizable=0;rotatable=0;" vertex="1" connectable="0" parent="1">
          <mxGeometry x="100" y="1040" width="35" height="20" as="geometry" />
        </mxCell>
        <mxCell id="M4jZRAMzwR4Ym-2Xzj8O-416" value="" style="shape=waypoint;fillStyle=solid;size=3;movable=1;resizable=1;rotatable=1;deletable=1;editable=1;locked=0;connectable=1;" vertex="1" parent="M4jZRAMzwR4Ym-2Xzj8O-415">
          <mxGeometry width="20" height="20" as="geometry" />
        </mxCell>
        <mxCell id="M4jZRAMzwR4Ym-2Xzj8O-417" value="" style="shape=waypoint;fillStyle=solid;size=3;movable=1;resizable=1;rotatable=1;deletable=1;editable=1;locked=0;connectable=1;" vertex="1" parent="M4jZRAMzwR4Ym-2Xzj8O-415">
          <mxGeometry x="5" width="20" height="20" as="geometry" />
        </mxCell>
        <mxCell id="M4jZRAMzwR4Ym-2Xzj8O-418" value="" style="shape=waypoint;fillStyle=solid;size=3;movable=1;resizable=1;rotatable=1;deletable=1;editable=1;locked=0;connectable=1;" vertex="1" parent="M4jZRAMzwR4Ym-2Xzj8O-415">
          <mxGeometry x="15" width="20" height="20" as="geometry" />
        </mxCell>
        <mxCell id="M4jZRAMzwR4Ym-2Xzj8O-419" value="" style="shape=waypoint;fillStyle=solid;size=3;movable=1;resizable=1;rotatable=1;deletable=1;editable=1;locked=0;connectable=1;" vertex="1" parent="M4jZRAMzwR4Ym-2Xzj8O-415">
          <mxGeometry x="10" width="20" height="20" as="geometry" />
        </mxCell>
        <mxCell id="M4jZRAMzwR4Ym-2Xzj8O-420" value="" style="group;allowArrows=0;dropTarget=0;recursiveResize=0;expand=0;resizable=0;rotatable=0;" vertex="1" connectable="0" parent="1">
          <mxGeometry x="240" y="1000" width="35" height="20" as="geometry" />
        </mxCell>
        <mxCell id="M4jZRAMzwR4Ym-2Xzj8O-421" value="" style="shape=waypoint;fillStyle=solid;size=3;movable=1;resizable=1;rotatable=1;deletable=1;editable=1;locked=0;connectable=1;" vertex="1" parent="M4jZRAMzwR4Ym-2Xzj8O-420">
          <mxGeometry width="20" height="20" as="geometry" />
        </mxCell>
        <mxCell id="M4jZRAMzwR4Ym-2Xzj8O-422" value="" style="shape=waypoint;fillStyle=solid;size=3;movable=1;resizable=1;rotatable=1;deletable=1;editable=1;locked=0;connectable=1;" vertex="1" parent="M4jZRAMzwR4Ym-2Xzj8O-420">
          <mxGeometry x="5" width="20" height="20" as="geometry" />
        </mxCell>
        <mxCell id="M4jZRAMzwR4Ym-2Xzj8O-423" value="" style="shape=waypoint;fillStyle=solid;size=3;movable=1;resizable=1;rotatable=1;deletable=1;editable=1;locked=0;connectable=1;" vertex="1" parent="M4jZRAMzwR4Ym-2Xzj8O-420">
          <mxGeometry x="15" width="20" height="20" as="geometry" />
        </mxCell>
        <mxCell id="M4jZRAMzwR4Ym-2Xzj8O-424" value="" style="shape=waypoint;fillStyle=solid;size=3;movable=1;resizable=1;rotatable=1;deletable=1;editable=1;locked=0;connectable=1;" vertex="1" parent="M4jZRAMzwR4Ym-2Xzj8O-420">
          <mxGeometry x="10" width="20" height="20" as="geometry" />
        </mxCell>
        <mxCell id="M4jZRAMzwR4Ym-2Xzj8O-425" value="" style="group;allowArrows=0;dropTarget=0;recursiveResize=0;expand=0;resizable=0;rotatable=0;" vertex="1" connectable="0" parent="1">
          <mxGeometry x="240" y="1080" width="35" height="20" as="geometry" />
        </mxCell>
        <mxCell id="M4jZRAMzwR4Ym-2Xzj8O-426" value="" style="shape=waypoint;fillStyle=solid;size=3;movable=1;resizable=1;rotatable=1;deletable=1;editable=1;locked=0;connectable=1;" vertex="1" parent="M4jZRAMzwR4Ym-2Xzj8O-425">
          <mxGeometry width="20" height="20" as="geometry" />
        </mxCell>
        <mxCell id="M4jZRAMzwR4Ym-2Xzj8O-427" value="" style="shape=waypoint;fillStyle=solid;size=3;movable=1;resizable=1;rotatable=1;deletable=1;editable=1;locked=0;connectable=1;" vertex="1" parent="M4jZRAMzwR4Ym-2Xzj8O-425">
          <mxGeometry x="5" width="20" height="20" as="geometry" />
        </mxCell>
        <mxCell id="M4jZRAMzwR4Ym-2Xzj8O-428" value="" style="shape=waypoint;fillStyle=solid;size=3;movable=1;resizable=1;rotatable=1;deletable=1;editable=1;locked=0;connectable=1;" vertex="1" parent="M4jZRAMzwR4Ym-2Xzj8O-425">
          <mxGeometry x="15" width="20" height="20" as="geometry" />
        </mxCell>
        <mxCell id="M4jZRAMzwR4Ym-2Xzj8O-429" value="" style="shape=waypoint;fillStyle=solid;size=3;movable=1;resizable=1;rotatable=1;deletable=1;editable=1;locked=0;connectable=1;" vertex="1" parent="M4jZRAMzwR4Ym-2Xzj8O-425">
          <mxGeometry x="10" width="20" height="20" as="geometry" />
        </mxCell>
        <mxCell id="M4jZRAMzwR4Ym-2Xzj8O-431" value="" style="group;allowArrows=0;dropTarget=0;recursiveResize=0;expand=0;resizable=0;rotatable=0;" vertex="1" connectable="0" parent="1">
          <mxGeometry x="380" y="1040" width="35" height="20" as="geometry" />
        </mxCell>
        <mxCell id="M4jZRAMzwR4Ym-2Xzj8O-432" value="" style="shape=waypoint;fillStyle=solid;size=3;movable=1;resizable=1;rotatable=1;deletable=1;editable=1;locked=0;connectable=1;" vertex="1" parent="M4jZRAMzwR4Ym-2Xzj8O-431">
          <mxGeometry width="20" height="20" as="geometry" />
        </mxCell>
        <mxCell id="M4jZRAMzwR4Ym-2Xzj8O-433" value="" style="shape=waypoint;fillStyle=solid;size=3;movable=1;resizable=1;rotatable=1;deletable=1;editable=1;locked=0;connectable=1;" vertex="1" parent="M4jZRAMzwR4Ym-2Xzj8O-431">
          <mxGeometry x="5" width="20" height="20" as="geometry" />
        </mxCell>
        <mxCell id="M4jZRAMzwR4Ym-2Xzj8O-434" value="" style="shape=waypoint;fillStyle=solid;size=3;movable=1;resizable=1;rotatable=1;deletable=1;editable=1;locked=0;connectable=1;" vertex="1" parent="M4jZRAMzwR4Ym-2Xzj8O-431">
          <mxGeometry x="15" width="20" height="20" as="geometry" />
        </mxCell>
        <mxCell id="M4jZRAMzwR4Ym-2Xzj8O-435" value="" style="shape=waypoint;fillStyle=solid;size=3;movable=1;resizable=1;rotatable=1;deletable=1;editable=1;locked=0;connectable=1;" vertex="1" parent="M4jZRAMzwR4Ym-2Xzj8O-431">
          <mxGeometry x="10" width="20" height="20" as="geometry" />
        </mxCell>
        <mxCell id="M4jZRAMzwR4Ym-2Xzj8O-436" value="" style="group;allowArrows=0;dropTarget=0;recursiveResize=0;expand=0;resizable=0;rotatable=0;" vertex="1" connectable="0" parent="1">
          <mxGeometry x="520" y="1000" width="35" height="20" as="geometry" />
        </mxCell>
        <mxCell id="M4jZRAMzwR4Ym-2Xzj8O-437" value="" style="shape=waypoint;fillStyle=solid;size=3;movable=1;resizable=1;rotatable=1;deletable=1;editable=1;locked=0;connectable=1;" vertex="1" parent="M4jZRAMzwR4Ym-2Xzj8O-436">
          <mxGeometry width="20" height="20" as="geometry" />
        </mxCell>
        <mxCell id="M4jZRAMzwR4Ym-2Xzj8O-438" value="" style="shape=waypoint;fillStyle=solid;size=3;movable=1;resizable=1;rotatable=1;deletable=1;editable=1;locked=0;connectable=1;" vertex="1" parent="M4jZRAMzwR4Ym-2Xzj8O-436">
          <mxGeometry x="5" width="20" height="20" as="geometry" />
        </mxCell>
        <mxCell id="M4jZRAMzwR4Ym-2Xzj8O-439" value="" style="shape=waypoint;fillStyle=solid;size=3;movable=1;resizable=1;rotatable=1;deletable=1;editable=1;locked=0;connectable=1;" vertex="1" parent="M4jZRAMzwR4Ym-2Xzj8O-436">
          <mxGeometry x="15" width="20" height="20" as="geometry" />
        </mxCell>
        <mxCell id="M4jZRAMzwR4Ym-2Xzj8O-440" value="" style="shape=waypoint;fillStyle=solid;size=3;movable=1;resizable=1;rotatable=1;deletable=1;editable=1;locked=0;connectable=1;" vertex="1" parent="M4jZRAMzwR4Ym-2Xzj8O-436">
          <mxGeometry x="10" width="20" height="20" as="geometry" />
        </mxCell>
        <mxCell id="M4jZRAMzwR4Ym-2Xzj8O-441" value="" style="group;allowArrows=0;dropTarget=0;recursiveResize=0;expand=0;resizable=0;rotatable=0;" vertex="1" connectable="0" parent="1">
          <mxGeometry x="520" y="1080" width="35" height="20" as="geometry" />
        </mxCell>
        <mxCell id="M4jZRAMzwR4Ym-2Xzj8O-442" value="" style="shape=waypoint;fillStyle=solid;size=3;movable=1;resizable=1;rotatable=1;deletable=1;editable=1;locked=0;connectable=1;" vertex="1" parent="M4jZRAMzwR4Ym-2Xzj8O-441">
          <mxGeometry width="20" height="20" as="geometry" />
        </mxCell>
        <mxCell id="M4jZRAMzwR4Ym-2Xzj8O-443" value="" style="shape=waypoint;fillStyle=solid;size=3;movable=1;resizable=1;rotatable=1;deletable=1;editable=1;locked=0;connectable=1;" vertex="1" parent="M4jZRAMzwR4Ym-2Xzj8O-441">
          <mxGeometry x="5" width="20" height="20" as="geometry" />
        </mxCell>
        <mxCell id="M4jZRAMzwR4Ym-2Xzj8O-444" value="" style="shape=waypoint;fillStyle=solid;size=3;movable=1;resizable=1;rotatable=1;deletable=1;editable=1;locked=0;connectable=1;" vertex="1" parent="M4jZRAMzwR4Ym-2Xzj8O-441">
          <mxGeometry x="15" width="20" height="20" as="geometry" />
        </mxCell>
        <mxCell id="M4jZRAMzwR4Ym-2Xzj8O-445" value="" style="shape=waypoint;fillStyle=solid;size=3;movable=1;resizable=1;rotatable=1;deletable=1;editable=1;locked=0;connectable=1;" vertex="1" parent="M4jZRAMzwR4Ym-2Xzj8O-441">
          <mxGeometry x="10" width="20" height="20" as="geometry" />
        </mxCell>
        <mxCell id="M4jZRAMzwR4Ym-2Xzj8O-446" value="" style="group;allowArrows=0;dropTarget=0;recursiveResize=0;expand=0;resizable=0;rotatable=0;" vertex="1" connectable="0" parent="1">
          <mxGeometry x="380" y="1160" width="35" height="20" as="geometry" />
        </mxCell>
        <mxCell id="M4jZRAMzwR4Ym-2Xzj8O-447" value="" style="shape=waypoint;fillStyle=solid;size=3;movable=1;resizable=1;rotatable=1;deletable=1;editable=1;locked=0;connectable=1;" vertex="1" parent="M4jZRAMzwR4Ym-2Xzj8O-446">
          <mxGeometry width="20" height="20" as="geometry" />
        </mxCell>
        <mxCell id="M4jZRAMzwR4Ym-2Xzj8O-448" value="" style="shape=waypoint;fillStyle=solid;size=3;movable=1;resizable=1;rotatable=1;deletable=1;editable=1;locked=0;connectable=1;" vertex="1" parent="M4jZRAMzwR4Ym-2Xzj8O-446">
          <mxGeometry x="5" width="20" height="20" as="geometry" />
        </mxCell>
        <mxCell id="M4jZRAMzwR4Ym-2Xzj8O-449" value="" style="shape=waypoint;fillStyle=solid;size=3;movable=1;resizable=1;rotatable=1;deletable=1;editable=1;locked=0;connectable=1;" vertex="1" parent="M4jZRAMzwR4Ym-2Xzj8O-446">
          <mxGeometry x="15" width="20" height="20" as="geometry" />
        </mxCell>
        <mxCell id="M4jZRAMzwR4Ym-2Xzj8O-450" value="" style="shape=waypoint;fillStyle=solid;size=3;movable=1;resizable=1;rotatable=1;deletable=1;editable=1;locked=0;connectable=1;" vertex="1" parent="M4jZRAMzwR4Ym-2Xzj8O-446">
          <mxGeometry x="10" width="20" height="20" as="geometry" />
        </mxCell>
        <mxCell id="M4jZRAMzwR4Ym-2Xzj8O-452" value="" style="group;allowArrows=0;dropTarget=0;recursiveResize=0;expand=0;resizable=0;rotatable=0;" vertex="1" connectable="0" parent="1">
          <mxGeometry x="380" y="1240" width="35" height="20" as="geometry" />
        </mxCell>
        <mxCell id="M4jZRAMzwR4Ym-2Xzj8O-453" value="" style="shape=waypoint;fillStyle=solid;size=3;movable=1;resizable=1;rotatable=1;deletable=1;editable=1;locked=0;connectable=1;" vertex="1" parent="M4jZRAMzwR4Ym-2Xzj8O-452">
          <mxGeometry width="20" height="20" as="geometry" />
        </mxCell>
        <mxCell id="M4jZRAMzwR4Ym-2Xzj8O-454" value="" style="shape=waypoint;fillStyle=solid;size=3;movable=1;resizable=1;rotatable=1;deletable=1;editable=1;locked=0;connectable=1;" vertex="1" parent="M4jZRAMzwR4Ym-2Xzj8O-452">
          <mxGeometry x="5" width="20" height="20" as="geometry" />
        </mxCell>
        <mxCell id="M4jZRAMzwR4Ym-2Xzj8O-455" value="" style="shape=waypoint;fillStyle=solid;size=3;movable=1;resizable=1;rotatable=1;deletable=1;editable=1;locked=0;connectable=1;" vertex="1" parent="M4jZRAMzwR4Ym-2Xzj8O-452">
          <mxGeometry x="15" width="20" height="20" as="geometry" />
        </mxCell>
        <mxCell id="M4jZRAMzwR4Ym-2Xzj8O-456" value="" style="shape=waypoint;fillStyle=solid;size=3;movable=1;resizable=1;rotatable=1;deletable=1;editable=1;locked=0;connectable=1;" vertex="1" parent="M4jZRAMzwR4Ym-2Xzj8O-452">
          <mxGeometry x="10" width="20" height="20" as="geometry" />
        </mxCell>
        <mxCell id="M4jZRAMzwR4Ym-2Xzj8O-457" value="" style="group;allowArrows=0;dropTarget=0;recursiveResize=0;expand=0;resizable=0;rotatable=0;" vertex="1" connectable="0" parent="1">
          <mxGeometry x="380" y="1320" width="35" height="20" as="geometry" />
        </mxCell>
        <mxCell id="M4jZRAMzwR4Ym-2Xzj8O-458" value="" style="shape=waypoint;fillStyle=solid;size=3;movable=1;resizable=1;rotatable=1;deletable=1;editable=1;locked=0;connectable=1;" vertex="1" parent="M4jZRAMzwR4Ym-2Xzj8O-457">
          <mxGeometry width="20" height="20" as="geometry" />
        </mxCell>
        <mxCell id="M4jZRAMzwR4Ym-2Xzj8O-459" value="" style="shape=waypoint;fillStyle=solid;size=3;movable=1;resizable=1;rotatable=1;deletable=1;editable=1;locked=0;connectable=1;" vertex="1" parent="M4jZRAMzwR4Ym-2Xzj8O-457">
          <mxGeometry x="5" width="20" height="20" as="geometry" />
        </mxCell>
        <mxCell id="M4jZRAMzwR4Ym-2Xzj8O-460" value="" style="shape=waypoint;fillStyle=solid;size=3;movable=1;resizable=1;rotatable=1;deletable=1;editable=1;locked=0;connectable=1;" vertex="1" parent="M4jZRAMzwR4Ym-2Xzj8O-457">
          <mxGeometry x="15" width="20" height="20" as="geometry" />
        </mxCell>
        <mxCell id="M4jZRAMzwR4Ym-2Xzj8O-461" value="" style="shape=waypoint;fillStyle=solid;size=3;movable=1;resizable=1;rotatable=1;deletable=1;editable=1;locked=0;connectable=1;" vertex="1" parent="M4jZRAMzwR4Ym-2Xzj8O-457">
          <mxGeometry x="10" width="20" height="20" as="geometry" />
        </mxCell>
        <mxCell id="M4jZRAMzwR4Ym-2Xzj8O-462" value="" style="group;allowArrows=0;dropTarget=0;recursiveResize=0;expand=0;resizable=0;rotatable=0;" vertex="1" connectable="0" parent="1">
          <mxGeometry x="240" y="1320" width="35" height="20" as="geometry" />
        </mxCell>
        <mxCell id="M4jZRAMzwR4Ym-2Xzj8O-463" value="" style="shape=waypoint;fillStyle=solid;size=3;movable=1;resizable=1;rotatable=1;deletable=1;editable=1;locked=0;connectable=1;" vertex="1" parent="M4jZRAMzwR4Ym-2Xzj8O-462">
          <mxGeometry width="20" height="20" as="geometry" />
        </mxCell>
        <mxCell id="M4jZRAMzwR4Ym-2Xzj8O-464" value="" style="shape=waypoint;fillStyle=solid;size=3;movable=1;resizable=1;rotatable=1;deletable=1;editable=1;locked=0;connectable=1;" vertex="1" parent="M4jZRAMzwR4Ym-2Xzj8O-462">
          <mxGeometry x="5" width="20" height="20" as="geometry" />
        </mxCell>
        <mxCell id="M4jZRAMzwR4Ym-2Xzj8O-465" value="" style="shape=waypoint;fillStyle=solid;size=3;movable=1;resizable=1;rotatable=1;deletable=1;editable=1;locked=0;connectable=1;" vertex="1" parent="M4jZRAMzwR4Ym-2Xzj8O-462">
          <mxGeometry x="15" width="20" height="20" as="geometry" />
        </mxCell>
        <mxCell id="M4jZRAMzwR4Ym-2Xzj8O-466" value="" style="shape=waypoint;fillStyle=solid;size=3;movable=1;resizable=1;rotatable=1;deletable=1;editable=1;locked=0;connectable=1;" vertex="1" parent="M4jZRAMzwR4Ym-2Xzj8O-462">
          <mxGeometry x="10" width="20" height="20" as="geometry" />
        </mxCell>
        <mxCell id="M4jZRAMzwR4Ym-2Xzj8O-467" value="" style="group;allowArrows=0;dropTarget=0;recursiveResize=0;expand=0;resizable=0;rotatable=0;" vertex="1" connectable="0" parent="1">
          <mxGeometry x="240" y="1240" width="35" height="20" as="geometry" />
        </mxCell>
        <mxCell id="M4jZRAMzwR4Ym-2Xzj8O-468" value="" style="shape=waypoint;fillStyle=solid;size=3;movable=1;resizable=1;rotatable=1;deletable=1;editable=1;locked=0;connectable=1;" vertex="1" parent="M4jZRAMzwR4Ym-2Xzj8O-467">
          <mxGeometry width="20" height="20" as="geometry" />
        </mxCell>
        <mxCell id="M4jZRAMzwR4Ym-2Xzj8O-469" value="" style="shape=waypoint;fillStyle=solid;size=3;movable=1;resizable=1;rotatable=1;deletable=1;editable=1;locked=0;connectable=1;" vertex="1" parent="M4jZRAMzwR4Ym-2Xzj8O-467">
          <mxGeometry x="5" width="20" height="20" as="geometry" />
        </mxCell>
        <mxCell id="M4jZRAMzwR4Ym-2Xzj8O-470" value="" style="shape=waypoint;fillStyle=solid;size=3;movable=1;resizable=1;rotatable=1;deletable=1;editable=1;locked=0;connectable=1;" vertex="1" parent="M4jZRAMzwR4Ym-2Xzj8O-467">
          <mxGeometry x="15" width="20" height="20" as="geometry" />
        </mxCell>
        <mxCell id="M4jZRAMzwR4Ym-2Xzj8O-471" value="" style="shape=waypoint;fillStyle=solid;size=3;movable=1;resizable=1;rotatable=1;deletable=1;editable=1;locked=0;connectable=1;" vertex="1" parent="M4jZRAMzwR4Ym-2Xzj8O-467">
          <mxGeometry x="10" width="20" height="20" as="geometry" />
        </mxCell>
        <mxCell id="M4jZRAMzwR4Ym-2Xzj8O-472" value="" style="group;allowArrows=0;dropTarget=0;recursiveResize=0;expand=0;resizable=0;rotatable=0;" vertex="1" connectable="0" parent="1">
          <mxGeometry x="100" y="1280" width="35" height="20" as="geometry" />
        </mxCell>
        <mxCell id="M4jZRAMzwR4Ym-2Xzj8O-473" value="" style="shape=waypoint;fillStyle=solid;size=3;movable=1;resizable=1;rotatable=1;deletable=1;editable=1;locked=0;connectable=1;" vertex="1" parent="M4jZRAMzwR4Ym-2Xzj8O-472">
          <mxGeometry width="20" height="20" as="geometry" />
        </mxCell>
        <mxCell id="M4jZRAMzwR4Ym-2Xzj8O-474" value="" style="shape=waypoint;fillStyle=solid;size=3;movable=1;resizable=1;rotatable=1;deletable=1;editable=1;locked=0;connectable=1;" vertex="1" parent="M4jZRAMzwR4Ym-2Xzj8O-472">
          <mxGeometry x="5" width="20" height="20" as="geometry" />
        </mxCell>
        <mxCell id="M4jZRAMzwR4Ym-2Xzj8O-475" value="" style="shape=waypoint;fillStyle=solid;size=3;movable=1;resizable=1;rotatable=1;deletable=1;editable=1;locked=0;connectable=1;" vertex="1" parent="M4jZRAMzwR4Ym-2Xzj8O-472">
          <mxGeometry x="15" width="20" height="20" as="geometry" />
        </mxCell>
        <mxCell id="M4jZRAMzwR4Ym-2Xzj8O-476" value="" style="shape=waypoint;fillStyle=solid;size=3;movable=1;resizable=1;rotatable=1;deletable=1;editable=1;locked=0;connectable=1;" vertex="1" parent="M4jZRAMzwR4Ym-2Xzj8O-472">
          <mxGeometry x="10" width="20" height="20" as="geometry" />
        </mxCell>
      </root>
    </mxGraphModel>
  </diagram>
</mxfile>
